<svg width="80" height="80" viewBox="0 0 80 80" fill="none" xmlns="http://www.w3.org/2000/svg">
<path d="M19.9999 59.88H69.86V13.3067C69.86 9.63734 66.876 6.65332 63.2066 6.65332H19.96C15.948 6.65332 9.97998 9.31133 9.97998 16.6333V63.2067C9.97998 70.5286 15.948 73.1867 19.96 73.1867H69.86V66.5333H19.9999C18.463 66.4934 16.6333 65.8879 16.6333 63.2067C16.6333 62.8707 16.6633 62.5713 16.7132 62.2985C17.0857 60.3823 18.6559 59.9133 19.9999 59.88ZM28.769 25.4224C30.1537 24.0553 32.0211 23.2888 33.9669 23.2888C35.9127 23.2888 37.7802 24.0553 39.1648 25.4224L39.91 26.1509L40.6518 25.4224C42.0371 24.0551 43.9051 23.2885 45.8514 23.2885C47.7978 23.2885 49.6658 24.0551 51.051 25.4224C51.7381 26.0832 52.2848 26.876 52.6582 27.7531C53.0316 28.6303 53.224 29.5738 53.224 30.5271C53.224 31.4805 53.0316 32.424 52.6582 33.3012C52.2848 34.1783 51.7381 34.9711 51.051 35.6319L39.9133 46.5733L28.7723 35.6319C28.0846 34.9715 27.5373 34.179 27.1633 33.302C26.7894 32.4249 26.5965 31.4813 26.5962 30.5279C26.5959 29.5744 26.7882 28.6307 27.1615 27.7534C27.5349 26.876 28.0817 26.0832 28.769 25.4224Z" fill="#D93D65"/>
</svg>
