<svg width="80" height="80" viewBox="0 0 80 80" fill="none" xmlns="http://www.w3.org/2000/svg">
<path d="M13.3068 36.5938H33.2671C34.1494 36.5938 34.9955 36.2433 35.6194 35.6195C36.2433 34.9956 36.5938 34.1494 36.5938 33.2671V13.3069C36.5938 12.4246 36.2433 11.5784 35.6194 10.9545C34.9955 10.3306 34.1494 9.98015 33.2671 9.98015H13.3068C12.4245 9.98015 11.5784 10.3306 10.9545 10.9545C10.3306 11.5784 9.9801 12.4246 9.9801 13.3069V33.2671C9.9801 34.1494 10.3306 34.9956 10.9545 35.6195C11.5784 36.2433 12.4245 36.5938 13.3068 36.5938ZM13.3068 69.8609H33.2671C34.1494 69.8609 34.9955 69.5104 35.6194 68.8866C36.2433 68.2627 36.5938 67.4165 36.5938 66.5342V46.574C36.5938 45.6917 36.2433 44.8455 35.6194 44.2216C34.9955 43.5977 34.1494 43.2473 33.2671 43.2473H13.3068C12.4245 43.2473 11.5784 43.5977 10.9545 44.2216C10.3306 44.8455 9.9801 45.6917 9.9801 46.574V66.5342C9.9801 67.4165 10.3306 68.2627 10.9545 68.8866C11.5784 69.5104 12.4245 69.8609 13.3068 69.8609ZM46.5739 69.8609H66.5342C67.4165 69.8609 68.2626 69.5104 68.8865 68.8866C69.5104 68.2627 69.8609 67.4165 69.8609 66.5342V46.574C69.8609 45.6917 69.5104 44.8455 68.8865 44.2216C68.2626 43.5977 67.4165 43.2473 66.5342 43.2473H46.5739C45.6916 43.2473 44.8455 43.5977 44.2216 44.2216C43.5977 44.8455 43.2472 45.6917 43.2472 46.574V66.5342C43.2472 67.4165 43.5977 68.2627 44.2216 68.8866C44.8455 69.5104 45.6916 69.8609 46.5739 69.8609ZM70.8356 20.935L58.906 9.00542C58.5974 8.69622 58.2307 8.45092 57.8272 8.28355C57.4236 8.11618 56.991 8.03003 56.5541 8.03003C56.1171 8.03003 55.6845 8.11618 55.2809 8.28355C54.8774 8.45092 54.5107 8.69622 54.2021 9.00542L42.2725 20.935C41.9633 21.2437 41.718 21.6103 41.5506 22.0139C41.3832 22.4175 41.2971 22.8501 41.2971 23.287C41.2971 23.7239 41.3832 24.1565 41.5506 24.5601C41.718 24.9637 41.9633 25.3303 42.2725 25.639L54.2021 37.5686C54.5107 37.8778 54.8774 38.1231 55.2809 38.2904C55.6845 38.4578 56.1171 38.544 56.5541 38.544C56.991 38.544 57.4236 38.4578 57.8272 38.2904C58.2307 38.1231 58.5974 37.8778 58.906 37.5686L70.8356 25.639C71.1448 25.3303 71.3901 24.9637 71.5575 24.5601C71.7249 24.1565 71.811 23.7239 71.811 23.287C71.811 22.8501 71.7249 22.4175 71.5575 22.0139C71.3901 21.6103 71.1448 21.2437 70.8356 20.935Z" fill="#D93D65"/>
</svg>
