<svg width="1920" height="494" viewBox="0 0 1920 494" fill="none" xmlns="http://www.w3.org/2000/svg">
<mask id="mask0_623_327" style="mask-type:alpha" maskUnits="userSpaceOnUse" x="0" y="0" width="1920" height="494">
<rect width="1920" height="494" fill="#242424" fill-opacity="0.8"/>
</mask>
<g mask="url(#mask0_623_327)">
<rect opacity="0.6" x="84.0093" y="375.002" width="1927" height="789" fill="#242424"/>
<path d="M799.889 -24.0768L839.524 45.7825L1739.13 -263.416C1739.13 -263.416 1682.74 -329.973 1644.78 -308.409C1606.81 -286.845 1611.91 -245.077 1611.91 -245.077C1611.91 -245.077 1585.79 -300.949 1531.31 -275.617C1476.87 -250.284 1477.15 -203.97 1477.15 -203.97C1435.33 -228.564 1335.24 -244.261 1265.37 -154.393C1195.5 -64.5236 1164.03 -83.8728 992.003 -105.242C834.317 -124.825 803.852 -38.5304 799.928 -24.0379L799.889 -24.0768Z" fill="#FDDDD8"/>
<path d="M742.418 900.722C719.297 901.033 694.117 903.17 669.404 906.706C665.518 907.25 661.632 907.832 657.746 908.454C647.488 910.086 637.385 911.99 627.592 914.01C618.927 915.875 610.495 917.857 602.451 919.955C594.447 922.053 586.869 924.268 579.797 926.599C575.872 927.881 572.103 929.202 568.528 930.562C566.741 931.222 565.031 931.883 563.36 932.582C563.36 932.582 563.334 932.595 563.282 932.621C561.573 933.321 559.902 934.02 558.309 934.719C557.57 935.03 556.832 935.341 556.094 935.691C554.928 936.196 553.801 936.74 552.713 937.284C551.586 937.789 550.537 938.333 549.488 938.877C546.263 940.547 543.348 942.257 540.745 943.967C540.006 944.472 539.307 944.938 538.646 945.443C537.908 945.948 537.209 946.492 536.509 947.036C535.343 948.007 534.255 948.979 533.284 949.911C530.797 952.398 529.048 954.884 528.194 957.371C528.077 957.604 527.999 957.876 527.922 958.109C527.572 959.197 527.416 960.285 527.416 961.373C527.416 989.931 417.293 975.36 314.125 977.381C309.384 977.458 304.682 977.614 300.019 977.769C193.043 981.616 218.107 999.916 132.347 1000.89C87.5824 1001.39 73.5158 1006.09 61.0035 1010.06C49.5404 1013.71 39.3596 1016.7 8.04004 1015.34C-57.4746 1012.43 -61.4381 1029.64 -61.4381 1029.64C-107.407 1029.64 -158.661 1049.49 -158.661 1049.49C-158.661 1049.49 -164.14 563.199 -153.104 187.21C-152.327 160.479 -151.472 134.33 -150.501 108.92C-145.915 -12.8483 -139.193 -116.821 -129.517 -179.492C-127.38 -193.519 -125.088 -205.408 -122.601 -215.005C-119.803 -225.923 -116.811 -233.81 -113.586 -238.356C-111.332 -241.542 -109 -243.057 -106.513 -242.785C-91.32 -241.153 -75.4659 -238.356 -59.5341 -234.898C-5.32715 -223.164 50.2398 -203.931 86.8052 -197.559C134.095 -189.322 185.505 -164.65 227.627 -161.581C269.788 -158.511 299.631 -146.156 299.631 -146.156C346.921 -146.156 356.169 -124.592 374.665 -124.592C393.162 -124.592 433.263 -112.236 470.295 -112.236C507.327 -112.236 562.816 -97.8605 562.816 -97.8605C562.816 -97.8605 607.036 -70.08 619.354 -60.8327C631.711 -51.5855 626.543 -31.0319 626.543 -31.0319C626.543 -31.0319 623.396 -30.5656 626.349 -30.2159C626.932 -30.1382 627.787 -30.0994 628.914 -30.0605C629.302 -30.0217 629.691 -30.0217 630.157 -30.0217C630.701 -29.9828 631.284 -29.9828 631.945 -29.9828C632.877 -29.9828 633.965 -29.9828 635.17 -29.9828C637.54 -29.9439 640.416 -29.9439 643.952 -29.9828C644.807 -29.9828 645.7 -29.9828 646.633 -29.9828C652.151 -30.0605 659.106 -30.1771 667.733 -30.4102C668.821 -30.449 669.948 -30.4491 671.113 -30.4879C672.007 -30.5268 672.901 -30.5656 673.833 -30.5656C675.621 -30.6045 677.486 -30.6822 679.39 -30.721C681.45 -30.7987 683.587 -30.8376 685.763 -30.9153C686.812 -30.9153 687.9 -30.993 688.988 -31.0319C689.377 -31.0319 689.765 -31.0318 690.115 -31.0707C691.086 -31.1096 692.019 -31.1096 693.029 -31.1484C694.972 -31.2261 696.954 -31.265 699.013 -31.3427C702.355 -31.4592 705.814 -31.5758 709.427 -31.6924C711.215 -31.7701 713.041 -31.8089 714.906 -31.8866C716.266 -31.8866 717.665 -32.0032 719.103 -32.042H719.414L742.418 900.722Z" fill="#F7B583"/>
<path d="M84.4349 853.748C84.4349 853.748 70.1351 899.44 70.1351 927.998C70.1351 944.977 65.0836 982.432 61.0035 1010.06C49.5404 1013.71 39.3596 1016.7 8.04002 1015.34C-57.4746 1012.43 -61.4381 1029.64 -61.4381 1029.64C-107.407 1029.64 -158.661 1049.49 -158.661 1049.49C-158.661 1049.49 -164.14 563.199 -153.104 187.21C-152.327 160.479 -151.472 134.33 -150.501 108.92C-145.915 -12.8481 -139.193 -116.821 -129.517 -179.492C-61.0107 -168.302 34.7355 -153.499 43.1288 -156.296C43.1288 -156.296 45.3826 -125.796 43.1288 -37.4814C40.9916 46.0155 49.2684 25.3841 44.1391 146.841C43.8671 153.796 43.5174 161.217 43.1288 169.143C42.5459 181.227 42.0408 192.495 41.6134 203.024C37.067 320.557 42.7791 346.705 42.7791 346.705C42.7791 346.705 -49.2367 354.243 -61.5158 356.497C-73.795 358.711 -44.496 373.204 -7.85292 372.66C28.829 372.116 31.044 378.799 31.044 378.799C31.044 378.799 27.469 468.396 33.5697 560.518C33.9195 565.997 34.308 571.475 34.7743 576.953C37.611 613.165 42.1185 648.949 49.0352 679.022C49.9678 683.024 50.9393 686.91 51.9496 690.679C55.7577 704.977 60.1875 717.682 65.3944 728.056L72.0392 808.988C72.0392 808.988 -48.3818 827.094 -64.3525 834.71C-80.3231 842.325 84.4349 853.748 84.4349 853.748Z" fill="#AE4D2D"/>
<path d="M130.093 43.0238C125.391 56.8169 128.189 145.326 129.51 180.489C128.422 179.789 127.218 178.973 125.896 178.08C106.467 164.947 95.3929 172.679 84.4349 171.086C82.0257 157.254 83.2303 129.435 84.4349 120.032C85.6784 110.63 84.4349 -157.112 84.4349 -157.112C100.639 -151.051 118.785 -145.106 135.106 -143.203C129.782 -99.4921 135.145 28.2205 130.093 43.0238Z" fill="#AE4D2D"/>
<path d="M307.402 167.706C307.402 167.706 312.765 283.762 318.166 296.817C318.166 296.817 321.236 242.266 328.152 223.073C335.069 203.879 322.013 170.736 307.402 167.706Z" fill="#AE4D2D"/>
<path d="M380.416 278.362C380.416 278.362 385.041 460.392 375.054 473.447C365.068 486.502 342.802 528.036 360.443 531.106C378.124 534.175 375.792 557.993 405.791 554.923C435.789 551.854 440.374 487.318 481.098 477.332C481.098 477.332 497.224 471.97 463.417 461.985C429.611 451.999 403.498 372.854 398.097 341.383C392.696 309.911 380.416 278.4 380.416 278.4V278.362Z" fill="#AE4D2D"/>
<path d="M497.729 -23.8436C493.765 4.63625 491.667 147.58 491.667 147.58H491.628C476.357 144.86 460.658 139.964 452.692 133.748L448.807 129.746C448.807 129.746 444.571 64.1603 443.444 3.54835C442.356 -57.0636 381.194 -92.4207 381.194 -92.4207C413.951 -84.0671 450.439 -74.4313 485.139 -65.3395C492.91 -52.4012 499.555 -36.8985 497.729 -23.8436Z" fill="#AE4D2D"/>
<path d="M588.268 179.168C576.766 178.779 565.575 178.235 557.687 176.797C564.021 159.702 557.687 -46.5344 557.687 -46.5344C569.189 -43.6204 579.719 -40.9783 588.967 -38.7637C590.25 11.9018 588.268 179.168 588.268 179.168Z" fill="#AE4D2D"/>
<path d="M538.763 312.32C524.036 327.745 535.266 355.758 522.637 382.373C510.008 409.027 498.04 465.792 498.04 465.792C492.6 459.809 496.447 322.655 497.69 282.558C497.884 275.642 503.208 270.008 510.125 269.27C516.847 268.531 525.24 268.57 532.429 271.679C536.043 273.233 539.19 275.564 541.6 278.4C548.983 287.065 549.876 300.702 538.763 312.32Z" fill="#AE4D2D"/>
<path d="M1387.5 896.06C1368.11 903.131 1351.52 918.206 1334.96 907.405C1334.34 906.978 1333.64 906.589 1332.9 906.239C1320.86 900.023 1297.43 899.867 1269.49 902.781C1257.75 903.986 1245.24 905.734 1232.42 907.793H1232.38C1228.07 908.532 1223.79 909.231 1219.44 910.008C1208.87 911.834 1198.26 913.816 1187.81 915.875C1184.16 916.574 1180.54 917.313 1176.93 918.012C1173.74 918.672 1170.71 919.45 1167.84 920.343C1150.5 925.86 1139.08 935.846 1128.98 945.637C1114.95 959.197 1103.49 972.33 1082.39 972.602C1072.05 972.757 1059.38 969.843 1042.98 962.344C1041.2 961.528 1039.45 960.751 1037.66 959.974C1032.57 957.76 1027.52 955.739 1022.58 953.874C954.311 928.269 901.697 935.613 885.882 928.619C881.879 926.832 877.022 924.345 870.844 921.548C869.872 921.12 868.862 920.654 867.813 920.188C867.113 919.916 866.414 919.605 865.676 919.294C863.344 918.362 860.896 917.352 858.254 916.38C857.593 916.108 856.933 915.875 856.233 915.642C856.155 915.642 856.117 915.642 856.078 915.642C847.762 912.65 837.737 909.736 825.419 907.25C816.909 905.54 807.311 904.025 796.431 902.898C793.866 902.626 791.262 902.393 788.542 902.199C782.209 901.655 775.486 901.266 768.297 900.994C766.199 900.916 764.101 900.877 761.925 900.8C756.29 900.683 750.423 900.644 744.244 900.722C743.623 900.722 743.04 900.722 742.418 900.761L719.414 -32.0033C757.339 -33.402 780.46 -31.0708 794.488 -27.3408C794.954 -27.2242 795.42 -27.1077 795.848 -26.9523C796.236 -26.8746 796.625 -26.758 796.975 -26.6414C797.83 -26.4083 798.607 -26.1363 799.384 -25.8644C800.083 -25.6312 800.744 -25.3981 801.404 -25.1261C801.521 -25.0873 801.638 -25.0484 801.715 -25.0096C802.298 -24.7765 802.842 -24.5822 803.347 -24.3491C803.775 -24.1548 804.241 -23.9605 804.63 -23.7663C805.912 -23.1834 807 -22.6006 807.971 -21.979C808.243 -21.7847 808.554 -21.5904 808.788 -21.435C809.332 -21.0853 809.837 -20.7356 810.264 -20.386C811.041 -19.7643 811.702 -19.1426 812.246 -18.5598C812.479 -18.2878 812.673 -18.0547 812.906 -17.8216C814.033 -16.384 814.694 -15.0241 815.005 -13.742C815.082 -13.47 815.121 -13.198 815.16 -12.9649C815.16 -12.8483 815.16 -12.7318 815.16 -12.6152C815.199 -12.2267 815.238 -11.9158 815.238 -11.5662C815.238 -9.11836 814.189 -7.44765 814.189 -7.44765C814.189 -7.44765 1072.05 -3.52341 1094.24 -2.70748C1097.42 -2.55206 1105 -2.31894 1115.65 -2.00811C1118.1 -1.9304 1120.74 -1.85271 1123.54 -1.775C1130.07 -1.58073 1137.45 -1.34759 1145.45 -1.15332C1147.63 -1.07561 1149.84 -1.03675 1152.1 -0.95904L1206.11 229.716L1270.73 268.92L1322.84 407.239L1387.46 896.099L1387.5 896.06Z" fill="#E86B7E"/>
<path d="M2104.9 948.862C2104.9 948.862 2091.18 948.823 2067.75 948.745C2033.79 948.629 1979.39 948.396 1916.86 947.891C1806.89 947.075 1671.79 945.521 1577.94 942.645C1538.46 941.441 1506.29 940.003 1486.39 938.294C1479.21 937.672 1473.61 937.012 1469.84 936.312C1452.74 933.165 1442.52 928.697 1436.15 923.801C1419.17 910.902 1429.19 895.049 1408.17 892.951C1400.91 892.213 1394.03 893.689 1387.5 896.06L1322.88 407.201L1270.77 268.881L1206.15 229.677L1152.14 -0.997925C1152.56 -0.997925 1153.03 -0.959045 1153.46 -0.959045C1155.52 -0.881317 1157.65 -0.842468 1159.79 -0.76474H1159.83C1216.37 0.867096 1293.46 3.04288 1329.02 4.0531C1341.14 4.40277 1348.45 4.59705 1348.45 4.59705L1394.84 -19.2204L1400.13 -21.9401L1410.5 -19.57L1456.98 -8.92407L1464.28 -7.25336L1467.16 -6.59286L1487.68 -12.5764C1491.29 -13.6254 1495.6 -14.8687 1500.65 -16.3452C1525.91 -23.7274 1676.99 -152.955 1791.24 -222.853C1810.47 -234.665 1828.66 -244.728 1845.01 -252.266C1860.56 -259.454 1874.47 -264.31 1886.09 -266.137C1906.99 -269.439 1928.17 -271.304 1948.57 -272.198C2022.13 -275.461 2085.08 -266.137 2085.08 -266.137C2087.53 -261.319 2089.86 -255.646 2092.07 -249.157C2114.57 -182.834 2123.74 -31.6924 2125.88 141.751C2130.23 498.313 2104.9 948.862 2104.9 948.862Z" fill="#5384B9"/>
<path d="M856.077 915.565C847.762 912.612 837.736 909.698 825.418 907.211C816.909 905.501 807.311 903.986 796.43 902.859C793.866 902.587 791.262 902.354 788.542 902.16C782.208 901.616 775.486 901.227 768.297 900.956C766.199 900.878 764.101 900.839 761.924 900.761C756.29 900.645 750.422 900.606 744.244 900.684C720.618 900.917 694.778 903.092 669.403 906.706C665.518 907.25 661.632 907.833 657.746 908.454C647.488 910.086 637.384 911.99 627.592 914.01C618.927 915.875 610.495 917.857 602.451 919.955C594.446 922.053 586.869 924.268 579.797 926.599C580.496 904.608 581.662 874.729 583.178 839.178C583.294 835.875 583.45 832.534 583.605 829.115C583.994 820.334 584.382 811.242 584.771 801.878C584.965 797.915 585.12 793.913 585.315 789.833C585.315 789.445 585.354 789.056 585.354 788.668C585.47 785.754 585.626 782.84 585.742 779.887C585.898 776.934 586.014 773.981 586.131 770.989C586.247 768.425 586.364 765.861 586.48 763.258C586.636 759.799 586.791 756.303 586.947 752.767C586.947 752.34 586.947 751.873 586.986 751.446H587.024C587.724 736.448 588.423 720.984 589.162 705.054C589.239 702.645 589.356 700.237 589.473 697.789L589.706 693.359C589.861 689.396 590.055 685.472 590.25 681.509C590.522 676.031 590.755 670.552 591.027 664.996C591.066 664.219 591.105 663.403 591.143 662.626C591.415 656.604 591.726 650.542 591.998 644.442C592.193 640.984 592.348 637.488 592.503 634.03C592.931 625.365 593.319 616.623 593.747 607.842C593.941 603.141 594.174 598.401 594.407 593.661C594.602 589.542 594.796 585.423 595.029 581.305C595.107 579.906 595.185 578.469 595.224 577.031C595.768 565.919 596.312 554.768 596.856 543.539C597.361 533.437 597.866 523.296 598.332 513.155C598.993 499.828 599.653 486.463 600.314 473.136C600.547 468.59 600.741 464.083 600.974 459.537C601.324 452.271 601.713 445.006 602.063 437.74C602.607 426.939 603.151 416.137 603.656 405.414C604.122 396.438 604.549 387.502 605.016 378.643C605.754 363.335 606.531 348.143 607.269 333.184C607.775 323.432 608.241 313.757 608.746 304.199C608.824 302.257 608.94 300.353 609.018 298.41C609.212 294.836 609.407 291.261 609.562 287.686C609.834 282.713 610.067 277.818 610.3 272.922C610.689 265.579 611.039 258.352 611.388 251.203C611.622 246.968 611.855 242.771 612.049 238.575C612.476 230.61 612.865 222.762 613.254 215.03C613.837 203.024 614.458 191.368 615.041 180.022C620.442 74.2623 624.289 0.206837 624.484 -3.60084C623.046 -12.5761 625.688 -26.7189 626.349 -30.2157C626.932 -30.138 627.787 -30.0992 628.913 -30.0603C629.302 -30.0215 629.691 -30.0215 630.157 -30.0215C630.701 -29.9826 631.284 -29.9826 631.944 -29.9826C632.877 -29.9826 633.965 -29.9826 635.17 -29.9826C637.54 -29.9437 640.415 -29.9437 643.951 -29.9826C644.806 -29.9826 645.7 -29.9826 646.633 -29.9826C652.151 -30.0603 659.106 -30.1769 667.733 -30.41C668.821 -30.4489 669.947 -30.4489 671.113 -30.4877C672.007 -30.5266 672.901 -30.5654 673.833 -30.5654C675.621 -30.6043 677.486 -30.682 679.39 -30.7208C681.449 -30.7985 683.587 -30.8374 685.763 -30.9151C686.812 -30.9151 687.9 -30.9928 688.988 -31.0317C689.376 -31.0317 689.765 -31.0317 690.115 -31.0705C691.086 -31.1094 692.019 -31.1094 693.029 -31.1482C694.972 -31.2259 696.954 -31.2648 699.013 -31.3425C702.355 -31.459 705.813 -31.5756 709.427 -31.6922C711.215 -31.7699 713.041 -31.8087 714.906 -31.8864C716.266 -31.8864 717.665 -32.003 719.103 -32.0419C757.223 -33.4406 780.421 -31.1094 794.487 -27.3794C794.954 -27.2628 795.42 -27.1463 795.847 -26.9909C796.236 -26.9132 796.625 -26.7966 796.974 -26.68C797.829 -26.4469 798.606 -26.1749 799.384 -25.903C800.083 -25.6698 800.744 -25.4367 801.404 -25.1647C801.521 -25.1259 801.637 -25.087 801.715 -25.0482C802.298 -24.8151 802.842 -24.6208 803.347 -24.3876C803.774 -24.1934 804.241 -23.9991 804.629 -23.8049C805.873 -23.222 806.961 -22.6004 807.971 -22.0176C808.243 -21.8233 808.554 -21.629 808.787 -21.4736C809.331 -21.1239 809.836 -20.7742 810.264 -20.4246C811.041 -19.8029 811.702 -19.1812 812.246 -18.5984C812.479 -18.3264 812.673 -18.0933 812.906 -17.8602C814.033 -16.4226 814.694 -15.0627 815.004 -13.7806C815.082 -13.5086 815.121 -13.2366 815.16 -13.0035C815.16 -12.8869 815.16 -12.7704 815.16 -12.6538C815.199 -12.2653 815.238 -11.9544 815.238 -11.6047C815.238 -9.15696 814.188 -7.48622 814.188 -7.48622C817.958 3.12088 821.377 19.8669 824.486 41.625C831.364 89.4152 836.726 161.178 840.962 243.937V244.015C841.894 261.616 842.71 279.721 843.526 298.177C849.355 434.165 852.503 590.202 854.212 716.439C854.368 729.105 854.523 741.46 854.679 753.466C855.495 822.043 855.844 879.197 856.039 915.565H856.077Z" fill="#84DCE0"/>
<path d="M638.434 -0.725898C638.434 4.16969 638.395 350.396 634.276 380.974C630.118 411.785 631.75 556.71 629.263 623.344C627.631 666.589 627.087 812.291 627.592 914.01C618.927 915.875 610.495 917.857 602.451 919.955C594.446 922.053 586.869 924.268 579.797 926.599C580.496 904.607 581.662 874.729 583.178 839.178C583.294 835.875 583.45 832.534 583.605 829.114C583.994 820.333 584.382 811.242 584.771 801.878C584.965 797.915 585.12 793.913 585.315 789.833C585.315 789.445 585.354 789.056 585.354 788.668C585.47 785.754 585.626 782.839 585.742 779.887C585.898 776.934 586.014 773.981 586.131 770.989C586.247 768.425 586.364 765.86 586.48 763.257C586.636 759.799 586.791 756.302 586.947 752.767C586.986 752.339 587.024 751.912 587.024 751.446C587.724 736.448 588.423 720.984 589.162 705.054C589.511 697.283 589.861 689.435 590.25 681.509C590.522 676.03 590.755 670.552 591.027 664.996C591.066 664.219 591.105 663.403 591.143 662.626C591.415 656.603 591.726 650.542 591.998 644.442C592.193 640.984 592.348 637.487 592.503 634.029C592.931 625.365 593.319 616.623 593.747 607.842C593.98 603.179 594.213 598.478 594.446 593.777L595.029 581.305C595.107 579.906 595.185 578.468 595.224 577.031C595.768 565.919 596.312 554.767 596.856 543.539C597.361 533.437 597.866 523.296 598.332 513.155C598.993 499.828 599.653 486.462 600.314 473.136C600.547 468.59 600.741 464.083 600.974 459.537C601.324 452.271 601.713 445.005 602.063 437.74C602.607 426.938 603.151 416.137 603.656 405.413C604.122 396.438 604.549 387.502 605.016 378.643C605.754 363.335 606.531 348.143 607.269 333.184C607.775 323.432 608.241 313.757 608.746 304.199C608.824 302.256 608.94 300.353 609.018 298.41C609.212 294.835 609.407 291.261 609.562 287.686C609.834 282.713 610.067 277.817 610.3 272.922C610.689 265.578 611.039 258.352 611.388 251.202C611.622 246.967 611.855 242.771 612.049 238.575C612.476 230.61 612.865 222.761 613.254 215.029C613.837 203.024 614.458 191.368 615.041 180.022C620.442 74.262 624.289 0.206602 624.484 -3.60107C625.183 0.78941 626.854 3.93655 630.235 3.93655C633.848 3.93655 636.491 1.83846 638.434 -0.725898Z" fill="#5DBFCC"/>
<path d="M670.958 396.633C671.813 406.23 677.68 804.093 677.68 826.356C677.68 844.112 671.774 889.261 669.404 906.706C665.518 907.25 661.632 907.833 657.746 908.454C660.116 894.7 665.09 865.715 667.111 856.546C669.753 844.346 667.616 715.118 667.111 695.652C666.567 676.147 658.756 145.443 658.756 145.443C661.632 128.58 667.15 92.9899 665.673 72.0866C664.313 53.087 664.197 31.2511 664.235 19.051C664.235 16.2536 667.849 15.2045 669.365 17.5357C671.852 21.3046 674.921 25.9282 677.952 30.0078C678.069 66.8413 670.453 154.34 669.637 172.718C668.782 192.844 670.064 387.075 670.958 396.633Z" fill="#A1EFEC"/>
<path d="M843.565 298.177C843.565 298.177 827.983 294.486 825.613 285.666C823.243 276.846 821.183 271.523 815.277 270.629C809.331 269.736 816.481 306.686 802.22 306.025C787.998 305.326 803.231 267.21 790.68 266.627C778.167 266.006 787.998 281.936 772.727 282.946C757.456 283.995 765.616 273.233 759.166 272.339C752.715 271.445 748.985 290.095 744.244 292.116C739.503 294.136 725.67 272.883 717.665 272.339C709.661 271.795 713.741 288.036 706.28 287.725C698.819 287.375 693.379 272.883 683.898 272.339C674.416 271.795 687.978 293.475 673.717 291.766C659.495 290.095 634.393 288.386 630.662 291.455C627.32 294.175 621.531 303.733 608.863 301.712C609.523 288.813 610.145 276.069 610.767 263.636C611.039 263.092 615.974 253.223 630.507 256.176C645.428 259.245 636.607 240.945 652.539 238.886C668.471 236.865 680.012 258.896 698.664 258.235C717.277 257.536 716.266 238.614 732.548 238.769C748.829 238.886 744.4 255.515 755.94 255.826C767.481 256.176 763.207 236.904 776.613 238.769C786.211 240.09 784.695 247.317 790.058 251.319C792.234 252.873 795.498 253.961 801.055 253.922C804.591 253.883 807.233 253.611 809.37 253.145C818.852 251.008 818.152 245.297 841.001 243.937V244.015C841.933 261.615 842.749 279.721 843.565 298.177Z" fill="#E0FCF6"/>
<path d="M768.375 793.913C767.209 812.951 768.025 880.984 768.297 900.955C766.199 900.877 764.1 900.839 761.924 900.761C758.893 857.905 760.525 650.892 760.215 644.364C759.865 637.254 760.914 303.888 760.215 287.608C759.671 273.893 760.292 90.8525 760.487 33.3877C763.673 39.7209 766.665 45.7044 768.958 49.784V377.477L768.375 568.599C768.375 568.599 769.735 771.533 768.375 793.913Z" fill="#A1EFEC"/>
<path d="M796.586 157.293C796.586 165.607 789.669 492.329 790.058 501.577C790.446 510.824 794.293 788.59 794.76 814C795.109 833.893 796.042 882.655 796.43 902.859C793.866 902.587 791.262 902.354 788.542 902.16C787.571 866.725 784.346 745.035 783.802 725.608C783.219 702.801 783.724 427.249 783.802 409.066C783.918 392.281 792.467 76.0104 793.788 26.2775C794.488 26.394 795.226 26.4329 796.003 26.4329C798.684 26.4329 800.278 24.8787 801.249 22.3921C803.658 66.025 796.586 149.677 796.586 157.293Z" fill="#A1EFEC"/>
<path d="M810.381 249.882C810.381 250.814 810.031 251.941 809.37 253.145C807.233 253.612 804.591 253.884 801.055 253.923C795.498 253.961 792.234 252.873 790.058 251.319C789.203 231.659 794.332 188.532 790.718 155.506C786.794 119.993 781.703 93.6116 781.276 91.4746C782.442 93.9613 798.879 130.056 800.55 147.58C802.298 165.724 810.381 243.51 810.381 249.882Z" fill="#5DBFCC"/>
<path d="M783.802 480.129C783.491 485.297 780.615 527.026 774.592 502.315C768.453 477.06 766.238 445.899 766.082 443.529V443.218C766.082 438.167 773.193 437.002 774.748 441.781C779.877 457.711 783.18 475.817 783.724 479.08C783.802 479.43 783.84 479.741 783.802 480.129Z" fill="#5DBFCC"/>
<path d="M267.301 228.084C267.301 228.084 61.8584 220.935 51.6776 214.019C47.6752 211.3 45.1494 207.103 41.6133 203.024C36.2121 196.69 28.4793 190.59 9.47774 190.59C-14.5365 190.59 -110.205 188.259 -153.104 187.21C-152.327 160.479 -151.472 134.33 -150.501 108.92C-150.501 108.92 -141.719 84.3252 -124.116 85.9182C-106.513 87.4723 -112.381 100.76 -112.381 100.76C-112.381 100.76 -86.6182 82.2271 -76.4374 97.3412L-66.2954 112.455C-66.2954 112.455 -33.4604 99.9444 -24.0956 125.743C-24.0956 125.743 0.112946 123.412 15.7339 137.438C15.7339 137.438 29.4896 140.663 44.1391 146.841C54.4365 151.154 65.239 156.904 72.0003 164.014C76.3913 168.638 80.3936 170.503 84.4349 171.086C95.3928 172.679 106.467 164.947 125.896 178.079C127.218 178.973 128.422 179.789 129.51 180.488C150.96 194.437 137.554 179.556 166.542 178.079C197.007 176.525 199.338 201.508 220.438 209.318C241.538 217.128 264.969 218.682 267.301 228.084Z" fill="#084E2B"/>
<path d="M30.8496 502.198C30.8496 502.198 49.2295 489.571 62.5578 498.468C62.5578 498.468 78.1399 486.929 94.4214 495.282C94.4214 495.282 110.742 480.673 139.652 485.841C139.652 485.841 141.129 468.784 164.094 474.729C187.059 480.673 175.207 492.524 186.321 492.524C197.434 492.524 204.118 473.485 204.118 473.485C204.118 473.485 238.196 508.104 227.083 511.057C215.969 514.01 30.8108 502.198 30.8108 502.198H30.8496Z" fill="#084E2B"/>
<path d="M615.041 180.022C614.458 191.368 613.837 203.024 613.254 215.03C611.894 214.835 610.456 214.524 608.979 214.097C579.914 205.86 544.281 206.404 499.827 199.838C455.412 193.233 440.064 191.601 440.064 191.601C469.673 169.104 515.759 165.802 515.759 165.802C484.478 159.236 378.046 176.797 356.674 165.802C335.263 154.845 310.511 151.581 310.511 151.581C302.156 133.514 386.828 135.651 404.392 125.782C421.956 115.913 442.24 119.76 448.807 129.745C449.739 131.105 451.021 132.465 452.692 133.747C460.658 139.964 476.357 144.86 491.628 147.579C495.903 148.356 500.177 148.939 504.218 149.367C525.629 151.542 543.737 159.779 546.457 171.319C547.079 173.922 551.314 175.632 557.687 176.797C565.575 178.235 576.766 178.779 588.268 179.168C597.516 179.44 606.959 179.595 615.041 180.022Z" fill="#084E2B"/>
<path d="M610.029 278.4C597.205 280.421 541.6 278.4 541.6 278.4C539.19 275.564 536.043 273.233 532.429 271.678C525.24 268.57 516.847 268.531 510.125 269.269L495.203 265.073C495.203 265.073 529.204 249.92 567.285 254.971C605.366 260.022 610.029 278.4 610.029 278.4Z" fill="#084E2B"/>
<path d="M1141.49 40.0708C1121.13 42.5574 1103.6 42.7905 1086.39 33.3879C1050.68 13.8444 964.491 5.60742 910.945 6.38449C872.359 6.92845 839.757 29.2305 824.525 41.6249C821.416 19.8667 817.997 3.12077 814.227 -7.48633C814.227 -7.48633 1072.09 -3.56209 1094.28 -2.74615C1097.5 -2.62959 1105.08 -2.39647 1115.69 -2.04678C1115.69 -2.04678 1130.49 12.3291 1139.9 35.9134C1140.48 37.2733 1140.98 38.672 1141.49 40.0708Z" fill="#084E2B"/>
<path d="M1368.23 28.0649C1368.23 29.9299 1363.1 31.3675 1354.51 32.3777C1327.43 35.6803 1265.87 35.2917 1219.94 33.3879C1211.2 33.0382 1202.92 33.1936 1195.07 33.6599C1192.82 30.5516 1190.3 27.3655 1187.5 24.1795C1180.35 15.9814 1171.33 7.58893 1159.83 -0.764648C1216.33 0.906067 1293.46 3.04299 1329.02 4.05319C1330.15 4.09204 1331.23 4.13089 1332.28 4.16975C1333.18 4.16975 1334.07 4.20862 1334.89 4.24747C1336.56 4.24747 1338.11 4.3252 1339.51 4.3252C1340.4 4.36405 1341.22 4.40292 1341.96 4.40292C1346.15 4.51948 1348.45 4.59714 1348.45 4.59714C1348.45 4.59714 1368.23 20.333 1368.23 28.0649Z" fill="#084E2B"/>
<path d="M1148.76 150.105C1139.31 149.638 1128.16 146.88 1114.29 142.101C1105.39 139.07 1097.23 137.982 1089.46 137.633C1075.98 137.05 1063.62 138.759 1050.41 136.545C1047.61 136.078 1045.01 135.457 1042.6 134.719C1026.74 130.134 1017.49 121.197 1006.65 120.576C1002.88 120.381 993.907 119.099 983.182 117.39C958.274 113.504 924.04 107.404 924.04 107.404H1146.93C1147.4 107.404 1147.86 107.443 1148.33 107.482C1148.41 112.028 1148.45 116.846 1148.52 121.858C1148.64 130.717 1148.72 140.197 1148.76 150.105Z" fill="#084E2B"/>
<path d="M1269.49 902.781C1257.75 903.986 1245.24 905.734 1232.42 907.794H1232.38C1228.07 908.532 1223.79 909.231 1219.44 910.008C1208.87 911.834 1198.26 913.816 1187.81 915.875C1184.16 916.575 1180.54 917.313 1176.93 918.012C1173.74 918.673 1170.71 919.45 1167.84 920.343C1150.5 925.861 1139.08 935.846 1128.98 945.637C1129.44 929.785 1130.18 903.714 1131.15 871.154C1131.54 857.828 1131.97 843.413 1132.4 828.143C1136.71 681.664 1143.39 458.06 1146.27 382.023C1146.77 368.153 1147.16 359.177 1147.4 356.496C1147.59 354.126 1147.78 350.085 1147.94 344.685C1148.95 310.105 1149.22 219.459 1148.76 150.105C1148.72 140.197 1148.64 130.717 1148.52 121.897C1148.48 118.905 1148.45 115.991 1148.41 113.194C1148.41 111.251 1148.41 109.347 1148.33 107.482C1148.33 106.433 1148.33 105.384 1148.33 104.335C1148.29 102.509 1148.25 100.683 1148.21 98.9342C1148.13 92.2125 1147.98 86.2291 1147.82 81.1781C1147.82 80.673 1147.82 80.2067 1147.78 79.7793C1147.78 79.3131 1147.78 78.8857 1147.75 78.4583C1147.78 78.4194 1147.75 78.3417 1147.75 78.3028C1147.71 76.9041 1147.67 75.6219 1147.63 74.4175C1147.59 73.3296 1147.55 72.3583 1147.51 71.4258C1147.47 70.7264 1147.47 70.1047 1147.43 69.4831C1146.89 58.7206 1144.64 48.8517 1141.53 40.0707C1141.02 38.6719 1140.52 37.2732 1139.94 35.9133C1130.53 12.329 1115.73 -2.04688 1115.73 -2.04688C1118.17 -1.96917 1120.82 -1.89147 1123.61 -1.81376C1130.14 -1.61949 1137.53 -1.38635 1145.53 -1.19209C1148.13 -1.11438 1150.78 -1.03668 1153.5 -0.958972C1155.56 -0.881264 1157.69 -0.842399 1159.83 -0.764691H1159.87C1171.37 7.58889 1180.39 15.9813 1187.54 24.1795C1190.33 27.3655 1192.86 30.5515 1195.11 33.6598C1201.64 42.6739 1206.15 51.416 1209.57 59.4976C1215.67 73.7958 1218.35 86.1513 1222.78 95.0489C1232.84 115.175 1229.74 129.745 1229.74 129.745C1231.64 142.334 1235.14 180.955 1239.1 229.677C1239.84 238.886 1240.62 248.483 1241.35 258.274C1241.86 264.374 1242.33 270.513 1242.83 276.768C1243.92 290.833 1245.01 305.248 1246.06 319.702C1247.22 335.204 1248.35 350.824 1249.44 366.093C1254.02 431.173 1257.91 491.28 1259.07 518.944C1260.78 560.285 1264.28 692.66 1266.85 794.884C1267.39 814.816 1267.86 833.583 1268.28 850.329C1268.79 871.815 1269.25 889.921 1269.53 902.781H1269.49Z" fill="#84DCE0"/>
<path d="M1298.24 271.912C1279.75 278.711 1256.43 239.352 1250.33 240.79C1248.7 241.178 1248.93 244.947 1250.02 250.27C1250.72 253.689 1251.77 257.769 1252.9 262.043C1252.9 262.043 1252.9 262.082 1252.93 262.121C1256.66 276.069 1261.44 291.805 1257.87 292.349C1251.77 293.281 1243.3 277.74 1242.79 276.769C1242.29 270.513 1241.82 264.374 1241.32 258.274C1240.58 248.483 1239.8 238.886 1239.06 229.678C1270.81 236.555 1316.7 265.112 1298.24 271.912Z" fill="#E0FCF6"/>
<path d="M1175.3 160.207C1174.64 202.519 1171.33 645.414 1169.08 839.1C1168.92 850.096 1168.81 860.275 1168.69 869.523C1168.38 893.029 1168.11 910.591 1167.84 920.343C1150.5 925.861 1139.08 935.846 1128.98 945.637C1129.44 929.785 1130.18 903.714 1131.15 871.154C1131.54 857.828 1131.97 843.413 1132.4 828.143C1136.71 681.664 1143.39 458.06 1146.27 382.023C1146.77 368.153 1147.16 359.177 1147.4 356.496C1147.59 354.126 1147.78 350.085 1147.94 344.685C1148.95 310.105 1149.22 219.459 1148.76 150.105C1148.72 140.197 1148.64 130.717 1148.52 121.897C1148.48 118.905 1148.45 115.991 1148.41 113.194C1148.41 111.251 1148.41 109.347 1148.33 107.482C1148.33 106.433 1148.33 105.384 1148.33 104.335C1148.29 102.509 1148.25 100.683 1148.21 98.9342C1148.13 92.2125 1147.98 86.2291 1147.82 81.1781C1147.82 80.673 1147.82 80.2067 1147.78 79.7793C1147.78 79.3131 1147.78 78.8857 1147.75 78.4583C1147.78 78.4194 1147.75 78.3417 1147.75 78.3028C1147.71 76.9041 1147.67 75.6219 1147.63 74.4175C1147.59 73.3296 1147.55 72.3583 1147.51 71.4258C1147.47 70.7264 1147.47 70.1047 1147.43 69.4831C1146.89 58.7206 1144.64 48.8517 1141.53 40.0707C1141.02 38.6719 1140.52 37.2732 1139.94 35.9133C1130.53 12.329 1115.73 -2.04688 1115.73 -2.04688C1118.17 -1.96917 1120.82 -1.89147 1123.61 -1.81376L1141.53 22.3922L1150.31 34.8254C1150.31 34.8254 1159.17 59.4587 1166.36 90.5807C1167.25 94.4661 1168.11 98.468 1168.92 102.548C1170.4 109.619 1171.68 116.924 1172.73 124.228C1174.48 136.506 1175.53 148.784 1175.34 160.207H1175.3Z" fill="#5DBFCC"/>
<path d="M1188.31 825.89C1188.27 837.623 1188.2 848.541 1188.16 858.566C1188 884.986 1187.89 904.957 1187.81 915.875C1184.16 916.574 1180.54 917.313 1176.93 918.012C1173.74 918.672 1170.71 919.45 1167.84 920.343C1168.11 910.591 1168.38 893.029 1168.69 869.522C1168.81 860.275 1168.92 850.095 1169.08 839.1C1171.33 645.413 1174.64 202.518 1175.3 160.207C1175.49 148.784 1174.44 136.506 1172.69 124.228C1175.14 130.911 1178.06 137.633 1183.42 139.575C1184.51 159.74 1186.02 189.192 1187.77 229.677C1190.72 296.7 1189.29 650.115 1188.31 825.89Z" fill="#A1EFEC"/>
<path d="M1232.38 907.793C1228.07 908.532 1223.79 909.231 1219.44 910.008C1218.47 901.149 1216.91 886.89 1215.2 870.766C1213.3 852.738 1211.16 832.378 1209.49 814.777C1207.43 793.602 1205.96 776.39 1206.15 771.844C1206.73 757.856 1214.93 532.737 1219.59 462.762C1224.26 392.786 1209.72 124.228 1209.72 124.228H1209.76C1213.22 131.805 1216.29 139.614 1219.09 141.363C1219.63 141.712 1220.14 141.868 1220.68 141.907C1223.09 210.212 1230.09 410.503 1230.09 428.376C1230.09 449.94 1216.68 679.139 1216.1 754.36C1215.9 779.964 1217.85 806.579 1220.57 830.552C1222.04 843.918 1223.75 856.468 1225.42 867.541C1228.22 885.919 1230.94 900.295 1232.38 907.793Z" fill="#A1EFEC"/>
<path d="M1187.5 24.1795C1178.4 26.2387 1184.62 40.1095 1174.09 41.6248C1163.52 43.1401 1159.52 28.7254 1154.47 29.1528C1149.42 29.5801 1151.09 38.7885 1147.55 39.2936C1143.98 39.7987 1139.94 35.9133 1139.94 35.9133H1139.9C1130.49 12.329 1115.69 -2.04688 1115.69 -2.04688C1127.31 -1.69719 1142.62 -1.26979 1159.79 -0.764691H1159.83C1171.33 7.58889 1180.35 15.9813 1187.5 24.1795Z" fill="#E0FCF6"/>
<path d="M1229.7 129.745C1229.7 129.745 1225.58 142.14 1220.68 141.907C1220.14 141.868 1219.63 141.712 1219.09 141.363C1216.29 139.614 1213.22 131.805 1209.76 124.228C1206.27 116.768 1202.38 109.502 1197.83 108.687C1188.74 107.055 1195.7 143.461 1183.85 139.731C1183.69 139.692 1183.57 139.653 1183.42 139.575C1178.06 137.633 1175.14 130.911 1172.69 124.228C1169.89 116.574 1167.72 108.959 1163.29 108.453C1154.9 107.521 1164.22 132.97 1158.63 133.203C1157.5 133.242 1156.41 132.815 1155.4 132.077C1151.71 129.434 1148.95 122.907 1148.52 121.897C1148.48 118.905 1148.45 115.991 1148.41 113.194C1148.41 111.251 1148.41 109.347 1148.33 107.482C1148.33 106.433 1148.33 105.384 1148.33 104.335C1148.29 102.509 1148.25 100.683 1148.21 98.9342C1148.13 92.2125 1147.98 86.229 1147.82 81.178C1147.82 80.2455 1147.78 79.313 1147.75 78.4583C1147.78 78.4194 1147.75 78.3417 1147.75 78.3028C1147.71 76.9041 1147.67 75.6219 1147.63 74.4174C1147.59 73.3295 1147.55 72.3582 1147.51 71.4257C1147.47 70.7263 1147.47 70.1047 1147.44 69.483C1147.44 69.483 1158.2 72.4359 1162.43 84.4805C1163.68 88.0551 1165 89.8813 1166.36 90.5806C1169.7 92.2125 1173.59 87.4723 1179.07 84.4805C1186.88 80.2455 1200.79 60.7797 1209.57 59.4976C1215.67 73.7958 1218.35 86.1513 1222.78 95.0488C1232.84 115.175 1229.74 129.745 1229.74 129.745H1229.7Z" fill="#E0FCF6"/>
<path d="M1249.4 366.093C1222.82 366.909 1222.74 352.65 1212.95 351.329C1202.07 349.814 1211.86 385.365 1201.56 384.821C1191.23 384.277 1189.05 353.893 1176.58 355.525C1164.11 357.157 1174.99 386.453 1159.79 388.318C1155.75 388.823 1150.78 386.181 1146.27 382.024C1146.77 368.153 1147.16 359.177 1147.4 356.497C1147.59 354.126 1147.78 350.086 1147.94 344.685C1179.45 341.46 1166.83 318.109 1184.74 317.021C1202.61 315.933 1205.88 327.861 1216.72 327.317C1227.6 326.773 1225.42 314.845 1231.91 314.301C1238.44 313.757 1246.02 319.702 1246.02 319.702C1247.18 335.205 1248.31 350.824 1249.4 366.093Z" fill="#E0FCF6"/>
<path d="M983.182 568.599C977.237 598.983 977.859 738.08 977.859 738.08C977.859 738.08 936.864 677.623 924.04 649.92C911.178 622.256 924.04 107.404 924.04 107.404C924.04 107.404 958.274 113.504 983.182 117.39C988.506 172.096 985.047 377.322 983.182 398.847C981.317 420.372 989.128 538.216 983.182 568.599Z" fill="#BA2C5E"/>
<path d="M1081.84 841.858C1081.84 886.89 1083.28 944.161 1082.39 972.602C1072.05 972.757 1059.38 969.843 1042.98 962.344C1041.2 961.528 1039.45 960.751 1037.66 959.974C1037.47 913.583 1037.27 837.623 1037.86 816.603C1038.67 785.753 1043.45 334 1039.06 293.786C1035.52 261.421 1040.54 169.415 1042.6 134.719C1045.01 135.457 1047.61 136.078 1050.41 136.545C1063.62 138.759 1075.98 137.05 1089.46 137.633C1089.73 162.072 1089.89 229.988 1084.1 247.511C1077.02 268.997 1079.04 663.364 1082.7 687.803C1086.31 712.242 1081.84 790.455 1081.84 841.858Z" fill="#BA2C5E"/>
<path d="M1333.02 868.823C1333.06 880.984 1333.02 893.185 1332.9 905.346V906.239C1320.86 900.023 1297.43 899.867 1269.49 902.781C1269.22 889.921 1268.75 871.815 1268.24 850.329C1267.82 833.583 1267.35 814.816 1266.81 794.884C1264.24 692.66 1260.75 560.285 1259.04 518.944C1257.87 491.28 1253.98 431.173 1249.4 366.093C1248.31 350.824 1247.18 335.204 1246.02 319.702C1244.97 305.248 1243.88 290.833 1242.79 276.768C1243.3 277.74 1251.77 293.281 1257.87 292.349C1257.87 292.349 1297.5 345.617 1302.48 407.512C1302.94 413.223 1303.61 420.45 1304.46 428.92C1304.65 431.057 1304.89 433.272 1305.12 435.564L1305.47 439.061C1305.82 442.597 1306.21 446.327 1306.64 450.251C1306.87 452.854 1307.14 455.535 1307.45 458.293C1307.69 460.819 1307.96 463.383 1308.23 466.025C1308.5 468.706 1308.77 471.465 1309.08 474.34C1309.51 478.575 1309.94 482.966 1310.41 487.473C1310.48 488.25 1310.56 489.027 1310.64 489.804C1310.95 493.029 1311.26 496.37 1311.61 499.712C1311.8 501.382 1311.96 503.092 1312.12 504.801C1312.31 506.511 1312.47 508.26 1312.62 510.008C1312.7 510.902 1312.81 511.834 1312.89 512.767C1313.09 514.981 1313.32 517.196 1313.55 519.449C1313.75 521.703 1313.98 523.957 1314.17 526.288C1314.41 528.58 1314.64 530.911 1314.84 533.242C1314.95 534.602 1315.11 535.962 1315.22 537.361C1316.39 549.794 1317.56 562.849 1318.72 576.409C1321.6 610.057 1324.43 647.007 1326.8 686.055C1327.11 690.95 1327.39 695.846 1327.66 700.78C1329.64 735.36 1331.19 771.455 1332.13 808.289C1332.28 813.418 1332.4 818.546 1332.48 823.675C1332.63 831.523 1332.75 839.372 1332.87 847.298C1332.87 851.184 1332.94 855.108 1332.98 858.993C1333.02 862.257 1333.02 865.559 1333.02 868.823Z" fill="#BA2C5E"/>
<path d="M1436.15 923.802C1419.17 910.902 1429.19 895.05 1408.17 892.952C1379.26 890.077 1357.11 921.859 1334.96 907.405C1334.34 906.978 1333.64 906.589 1332.9 906.24V905.346C1333.02 893.185 1333.06 880.985 1333.02 868.823C1333.02 865.56 1333.02 862.257 1332.98 858.993C1332.98 855.108 1332.9 851.184 1332.87 847.298C1332.79 839.411 1332.63 831.524 1332.48 823.675C1332.4 818.547 1332.28 813.418 1332.13 808.289C1331.19 771.456 1329.64 735.36 1327.66 700.781C1327.39 695.846 1327.11 690.951 1326.8 686.055C1324.43 647.007 1321.6 610.057 1318.72 576.409C1317.56 562.849 1316.39 549.794 1315.22 537.361C1315.11 535.963 1314.95 534.603 1314.84 533.243C1314.64 530.873 1314.41 528.58 1314.17 526.288C1313.98 523.957 1313.75 521.703 1313.55 519.45C1313.32 517.196 1313.13 514.943 1312.89 512.767C1312.81 511.834 1312.7 510.902 1312.62 510.008C1312.47 508.26 1312.31 506.511 1312.12 504.802C1311.96 503.092 1311.8 501.383 1311.61 499.712C1311.3 496.332 1310.99 493.029 1310.64 489.804C1310.56 489.027 1310.48 488.25 1310.41 487.473C1309.98 482.966 1309.51 478.575 1309.08 474.34C1308.77 471.465 1308.5 468.707 1308.23 466.026C1307.96 463.384 1307.72 460.819 1307.45 458.294C1307.14 455.535 1306.87 452.854 1306.64 450.251C1306.25 446.366 1305.86 442.636 1305.47 439.061L1305.12 435.564C1304.89 433.272 1304.69 431.057 1304.46 428.92C1303.61 420.45 1302.94 413.223 1302.48 407.512C1297.5 345.618 1257.87 292.349 1257.87 292.349C1264.2 291.378 1244.23 242.266 1250.33 240.79C1256.43 239.352 1279.75 278.711 1298.24 271.912C1298.24 271.912 1358.36 334.233 1369.9 398.381C1381.44 462.529 1395.12 515.176 1395.12 515.176C1395.12 515.176 1396.67 518.206 1398.5 522.947C1401.37 530.523 1404.91 542.451 1403.9 553.796C1403.82 554.535 1403.82 555.506 1403.9 556.672C1404.36 585.346 1428.92 740.917 1427.1 778.644H1427.14C1427.14 778.644 1428.61 778.721 1429.93 780.509C1429.93 780.509 1429.93 780.547 1429.97 780.547C1431.88 783.151 1433.82 789.328 1432.61 803.899C1432.15 809.455 1431.91 818.041 1431.88 828.26C1431.64 858.605 1433.12 903.131 1436.19 923.802H1436.15Z" fill="#84DCE0"/>
<path d="M1780.2 38.5166C1780.2 38.5166 1715.07 243.743 1719.97 300.236C1724.9 356.768 1688.03 462.451 1688.03 462.451C1688.03 462.451 1680.64 181.032 1680.64 135.573C1680.64 90.1144 1718.76 56.9333 1718.76 56.9333C1718.76 17.6132 1750.71 -42.6103 1755.64 -73.3048C1760.5 -103.805 1790.77 -221.027 1791.23 -222.853C1810.47 -234.665 1828.66 -244.728 1845.01 -252.266C1858.19 -202.61 1780.2 38.5166 1780.2 38.5166Z" fill="#1B3F77"/>
<path d="M1622.9 758.245C1622.9 758.245 1620.49 773.126 1602.42 805.647C1587.81 831.951 1580.27 912.767 1577.94 942.646C1538.46 941.441 1506.29 940.003 1486.39 938.294C1482.39 912.029 1483.87 876.477 1489.23 863.423C1497.66 842.947 1495.25 709.328 1479.59 657.536C1463.93 605.783 1426.63 260.217 1415.79 166.307C1404.95 72.3972 1354.51 32.3777 1354.51 32.3777C1363.1 31.3675 1368.23 29.9299 1368.23 28.0649C1368.23 20.333 1348.45 4.59718 1348.45 4.59718L1394.84 -19.2202C1400.21 -11.6049 1403.74 -2.39652 1404.09 8.59912C1405.61 59.148 1429.04 150.649 1432.96 162.693C1436.85 174.738 1463.93 262.626 1478.39 292.388C1492.84 322.15 1526.57 402.305 1538.62 450.445C1550.66 498.624 1613.27 623.811 1622.9 651.514C1632.54 679.216 1598.81 691.261 1598.81 713.214C1598.81 735.166 1622.9 758.245 1622.9 758.245Z" fill="#1B3F77"/>
<path d="M1410.5 -19.5701L1456.98 -8.92412C1455.66 15.6315 1444.58 41.9355 1438.6 41.6247C1433.2 41.3527 1418.55 2.73203 1410.5 -19.5701Z" fill="#1B3F77"/>
<path d="M1489.27 -1.34766C1488.76 7.00592 1481.15 22.7417 1473.03 19.8277C1469.33 18.5455 1466.42 5.99573 1464.28 -7.25343L1467.16 -6.59292L1487.68 -12.5764C1488.73 -7.71969 1489.39 -3.60118 1489.27 -1.34766Z" fill="#1B3F77"/>
<path d="M2067.75 948.745C2033.79 948.629 1979.39 948.396 1916.86 947.891C1896 865.715 1858.5 708.279 1867.4 671.484C1879.56 621.091 1851.78 502.898 1846.53 475.156C1841.28 447.414 1856.98 196.962 1876.1 215.029C1895.22 233.097 1959.53 402.072 1964.74 422.742C1969.98 443.412 2003.01 607.181 2004.72 666.278C2006.08 712.708 2049.29 879.43 2067.75 948.745Z" fill="#1B3F77"/>
<path d="M1406.27 892.796C1403.43 892.68 1400.63 892.874 1397.88 893.301C1398.03 729.183 1324.08 446.948 1322.88 407.201C1321.67 366.987 1255.03 265.306 1252.93 262.12C1252.9 262.082 1252.9 262.043 1252.9 262.043C1251.77 257.769 1250.72 253.689 1250.02 250.27C1276.33 271.989 1321.01 359.566 1321.01 359.566C1321.01 359.566 1364.92 587.055 1382.53 671.135C1396.98 740.062 1404.17 854.02 1406.27 892.796Z" fill="#A1EFEC"/>
<path d="M1915.89 277.468C1915.89 277.468 1932.33 145.636 1908.9 141.945C1885.47 138.254 1864.56 184.257 1860.44 251.591C1856.32 318.925 1876.88 366.171 1856.75 395.739C1836.62 425.306 1847.7 483.199 1847.7 483.199C1847.7 483.199 1802.5 476.205 1794.3 506.2C1794.3 506.2 1781.56 483.626 1772.12 481.955C1772.12 481.955 1789.37 461.829 1794.69 413.806C1800.02 365.743 1792.63 327.356 1774.18 323.976C1755.68 320.595 1739.28 381.363 1739.67 409.92C1739.67 409.92 1701.47 411.358 1682.59 469.678C1663.7 527.997 1678.47 608.036 1678.47 608.036C1678.47 608.036 1658.77 628.978 1666.97 661.033C1666.97 661.033 1611.13 670.086 1601.26 731.669C1591.39 793.252 1620.14 828.57 1620.14 828.57C1620.14 828.57 1597.68 836.769 1590.57 847.181C1583.46 857.594 1589.21 874.845 1589.21 874.845C1589.21 874.845 1578.84 868.163 1564.3 889.921C1549.73 911.679 1553 945.171 1561.31 947.463C1561.31 947.463 1547.87 968.25 1551.99 992.067C1556.1 1015.88 1593.33 1030.96 1593.33 1030.96C1593.33 1030.96 1548.26 1064.76 1563.88 1102.96C1579.5 1141.15 1615.21 1142.78 1643.96 1128.41C1643.96 1128.41 1654.22 1168.66 1708.04 1163.72C1761.86 1158.79 1762.67 1091.03 1762.67 1091.03C1762.67 1091.03 1773.75 1093.48 1774.18 1070.9C1774.18 1070.9 1834.95 1111.15 1915.85 1069.27C1915.85 1069.27 1942.55 1105.83 1997.18 1102.96C2051.82 1100.08 2075.21 1059.83 2074.39 1033.14C2074.39 1033.14 2102.33 1007.26 2094.52 955.933C2086.71 904.607 2059.2 894.739 2059.2 894.739C2059.2 894.739 2094.52 857.361 2091.65 804.403C2088.77 751.446 2068.25 738.701 2068.25 738.701C2068.25 738.701 2104.39 681.625 2088.77 618.371C2073.15 555.117 2032.93 556.36 2032.93 556.36C2032.93 556.36 2036.62 519.799 2023.06 501.343C2009.5 482.849 1982.42 479.158 1982.42 479.158C1982.42 479.158 1989.8 429.075 1971.34 427.016C1971.34 427.016 1970.53 306.686 1952.03 289.862C1933.53 273.038 1915.89 277.545 1915.89 277.545V277.468Z" fill="#071642"/>
<path d="M1901.13 337.147C1901.13 337.147 1906.6 472.669 1904.97 480.052L1892.11 478.964L1896.23 337.147H1901.16H1901.13Z" fill="#680B47"/>
<path d="M814.227 -7.48617C800.2 -7.68044 804.746 13.3783 801.249 22.3924C800.277 24.8791 798.684 26.4332 796.003 26.4332C795.226 26.4332 794.487 26.3944 793.788 26.2778C783.724 24.8014 785.317 13.2229 779.139 13.5337C772.533 13.8446 776.147 55.1851 772.844 55.1851C772.183 55.1851 770.823 53.1258 768.958 49.7844C766.665 45.7047 763.673 39.7212 760.487 33.3881C753.298 19.1676 745.099 3.27633 741.407 3.27633C734.802 3.27633 736.783 63.1501 726.525 61.8679C716.266 60.5858 703.055 10.1923 702.044 10.1923C701.034 10.1923 693.768 40.6537 688.483 40.6537C686.423 40.6537 682.227 35.8747 677.952 30.0078C674.921 25.9281 671.852 21.3045 669.365 17.5357C667.849 15.2045 664.235 16.2535 664.235 19.051C664.197 31.2511 664.313 53.087 665.673 72.0865C667.15 92.9899 661.632 128.58 658.756 145.443C658.368 147.657 655.181 147.618 654.832 145.404C649.625 111.135 645.661 0.828552 644.495 -7.33075C643.602 -13.5862 642.553 -6.20398 638.434 -0.764444C636.491 1.83876 633.848 3.93684 630.235 3.93684C626.854 3.93684 625.183 0.789696 624.484 -3.60079C624.406 -4.10589 624.328 -4.57215 624.289 -5.07725C624.25 -5.58235 624.173 -6.08745 624.173 -6.59255C623.901 -10.5945 624.212 -15.1792 624.678 -19.2977C624.989 -22.1729 625.377 -24.815 625.727 -26.8743C625.727 -26.952 625.727 -27.0297 625.805 -27.1462C625.96 -28.1564 626.116 -28.9724 626.232 -29.6329C626.271 -29.8272 626.31 -30.0603 626.349 -30.2157C626.932 -30.138 627.787 -30.0991 628.913 -30.0603C629.302 -30.0214 629.729 -30.0214 630.157 -30.0214C630.701 -29.9826 631.284 -29.9826 631.944 -29.9826C632.877 -29.9826 633.965 -29.9048 635.17 -29.9826C646.672 -29.9048 670.608 -30.3322 719.103 -32.0807C832.18 -36.1992 814.227 -7.52503 814.227 -7.52503V-7.48617Z" fill="#E0FCF6"/>
</g>
</svg>
