<svg width="986" height="575" viewBox="0 0 986 575" fill="none" xmlns="http://www.w3.org/2000/svg">
<g clip-path="url(#clip0_623_328)">
<path d="M986 176.574C986 176.574 980.975 160.911 960.747 143.429C955.765 138.401 923.199 110.091 863.135 154.834C797.597 203.642 789.215 218.899 739.671 198.314C690.127 177.73 652.772 207.472 641.353 227.287C641.353 227.287 630.683 208.221 602.48 210.511C574.276 212.8 576.564 241.794 576.564 241.794C576.564 241.794 568.951 223.478 548.36 223.478C527.768 223.478 520.156 263.898 520.156 263.898L960.747 181.303L986 176.574Z" fill="#FDDDD8"/>
<path d="M726.585 0.23548C726.585 0.23548 638.937 -5.86288 535.658 45.2349C535.658 45.2349 487.654 28.0739 465.544 41.041C443.456 54.008 430.113 80.691 430.113 80.691C430.113 80.691 402.294 58.5871 360.748 66.2047C319.223 73.8437 273.485 121.496 273.485 121.496C273.485 121.496 233.863 111.204 199.928 129.884C167.02 148.03 168.196 153.229 168.282 153.507C166.978 152.245 125.88 112.873 55.0818 101.682C-26.9209 90.9405 6.90653 208.842 6.90653 208.842L121.432 175.654L726.585 0.23548Z" fill="#FDDDD8"/>
<path d="M865.038 410.665V491.913L795.287 493.817H795.266L773.712 445.137C773.712 445.137 708.41 365.302 710.954 358.947L680.462 371.914L710.184 353.362C710.184 353.362 697.226 347.756 695.965 341.658C694.682 335.559 680.462 319.04 680.462 319.04L663.185 331.494L674.86 319.062C673.834 319.404 644.048 329.568 635.516 333.976C643.214 329.354 673.299 311.423 676.4 311.53L685.551 293.363C685.551 293.363 671.31 284.718 671.075 277.336C671.075 277.336 656.065 284.183 649.842 288.463C653.755 284.761 661.389 277.935 668.018 274.554C668.018 274.554 656.15 264.733 659.849 256.709C663.549 248.706 658.117 242.993 658.117 242.993C658.117 242.993 703.577 268.435 709.928 274.554C716.278 280.653 748.053 286.238 758.21 296.401C768.367 306.587 865.038 410.665 865.038 410.665Z" fill="#BA2C5E"/>
<path d="M773.691 445.137C773.691 445.137 708.388 365.302 710.933 358.947L680.441 371.914L710.163 353.362C710.163 353.362 697.205 347.756 695.943 341.658C694.66 335.559 680.441 319.04 680.441 319.04L663.164 331.494L674.839 319.062C673.812 319.404 644.026 329.568 635.494 333.976C643.192 329.354 673.278 311.423 676.378 311.53L685.53 293.363C685.53 293.363 671.289 284.718 671.054 277.336C671.054 277.336 656.043 284.183 649.821 288.463C648.153 290.046 647.169 291.073 647.169 291.073C647.255 290.453 648.26 289.554 649.821 288.463C653.734 284.761 661.368 277.935 667.996 274.554C667.996 274.554 656.129 264.733 659.828 256.709C663.527 248.706 658.096 242.993 658.096 242.993C658.096 242.993 641.524 252.493 626.578 261.117C616.293 267.065 606.799 272.586 604.019 274.34C604.725 274.169 616.314 271.195 626.834 267.878C626.834 267.878 590.206 306.266 561.083 314.333C571.175 321.009 595.466 337.977 597.882 348.526C600.919 361.879 632.18 377.499 651.981 383.982C671.653 390.423 793.342 492.212 795.245 493.796L773.691 445.137ZM633.976 334.875C634.211 334.682 634.511 334.511 634.874 334.318C634.468 334.575 634.169 334.768 633.976 334.875Z" fill="#E86B7E"/>
<path d="M739.414 531.327C739.414 531.327 698.402 534.537 667.333 536.976C648.88 538.431 633.955 539.63 633.206 539.715C632.159 539.843 599.122 539.437 571.603 537.704H571.517C545.388 536.056 524.283 533.21 540.234 528.524C572.993 518.852 614.154 459.88 614.154 459.88L596.621 448.432L543.527 467.262C543.527 467.262 536.664 462.17 571.988 444.88C603.741 429.324 608.766 412.548 609.664 410.815C609.771 410.623 609.814 410.601 609.835 410.815C609.899 411.414 610.99 413.254 612.872 415.651C617.469 421.557 626.984 430.843 638.552 433.176C654.803 436.492 706.635 488.853 706.635 488.853L739.414 531.327Z" fill="#F7B583"/>
<path d="M797.64 524.009L739.414 531.327L706.635 488.853C706.635 488.853 654.803 436.492 638.552 433.176C626.984 430.843 617.469 421.557 612.872 415.651C611.268 412.613 610.22 410.879 609.835 410.815C609.835 410.601 609.771 410.623 609.664 410.815C604.661 411.072 536.343 444.795 527.554 449.096C540.384 441.992 584.946 412.976 584.946 412.976L587.982 402.684C587.982 402.684 582.273 388.176 576.949 387.813C571.688 387.427 519.899 416.999 518.296 417.919L572.736 366.458C572.736 366.458 570.47 365.302 564.354 359.589C558.26 353.854 559.415 328.305 559.415 328.305L540.726 340.524L556.72 311.551H556.742C556.742 311.551 558.41 312.578 561.104 314.333C571.197 321.009 595.487 337.977 597.904 348.526C600.94 361.879 632.202 377.499 652.002 383.982C671.674 390.423 793.363 492.212 795.266 493.796H795.288L797.64 524.009Z" fill="#AE4D2D"/>
<path d="M571.517 537.704C566.45 537.747 359.358 539.052 275.773 534.515C262.751 533.809 252.722 532.975 246.928 531.948C203.478 524.33 246.928 472.077 246.928 472.077C246.928 472.077 294.568 475.137 309.044 469.402C321.062 464.673 344.069 453.632 370.285 439.552C370.285 439.552 370.306 439.552 370.327 439.531C372.337 438.718 436.678 412.484 459.686 405.209C459.686 405.209 374.625 454.766 363.421 477.662C364.618 477.063 403 457.591 416.257 457.077C416.257 457.077 397.205 467.498 389.315 483.781C389.315 483.781 465.545 450.208 481.026 444.495C496.528 438.782 510.256 428.618 510.256 428.618L478.759 461.635C479.743 461.1 511.004 443.661 520.006 431.378C518.061 434.567 496.229 469.338 463.513 486.071C463.513 486.071 521.696 475.008 543.527 467.262L596.621 448.432L614.154 459.88C614.154 459.88 572.993 518.852 540.234 528.524C524.283 533.21 545.388 536.056 571.517 537.704Z" fill="#FDE1BE"/>
<path d="M609.664 410.815C608.766 412.548 603.741 429.324 571.988 444.88C536.664 462.17 543.527 467.262 543.527 467.262C521.696 475.008 463.513 486.071 463.513 486.071C496.229 469.338 518.061 434.567 520.006 431.378C511.004 443.661 479.743 461.1 478.759 461.635L510.256 428.618C510.256 428.618 496.528 438.782 481.026 444.495C465.545 450.208 389.315 483.781 389.315 483.781C397.205 467.498 416.257 457.077 416.257 457.077C403 457.591 364.618 477.063 363.421 477.662C374.625 454.766 459.686 405.209 459.686 405.209C436.678 412.484 372.337 438.718 370.327 439.531C375.694 436.642 381.19 433.625 386.771 430.522C412.473 416.165 502.323 351.201 539.956 323.791L544.853 320.217L546.735 318.848L547.098 318.57C552.893 314.354 556.4 311.786 556.72 311.551L540.726 340.524L559.415 328.305C559.415 328.305 558.26 353.854 564.354 359.589C570.47 365.302 572.736 366.458 572.736 366.458L518.296 417.919C519.899 416.999 571.688 387.427 576.949 387.813C582.273 388.176 587.982 402.684 587.982 402.684L584.946 412.976C584.946 412.976 540.384 441.992 527.554 449.096C536.343 444.795 604.661 411.072 609.664 410.815Z" fill="#FEF2DE"/>
<path d="M626.856 267.878C626.856 267.878 590.227 306.266 561.104 314.333C558.41 312.578 556.742 311.53 556.742 311.53H556.72C556.4 311.786 552.893 314.354 547.098 318.57C547.184 314.761 509.101 296.081 500.912 288.848C492.722 281.594 484.148 253.371 484.148 253.371L462.487 244.79L458.681 224.976C457.847 225.019 456.692 225.382 455.302 225.982C451.56 220.525 439.885 181.881 439.885 181.881C435.203 181.881 420.149 195.105 419.208 195.939C422.031 191.446 433.15 176.168 433.15 176.168L432.123 144.499C430.22 144.499 424.511 150.49 424.511 150.49C426.029 146.917 431.503 139.299 431.503 139.299C431.503 139.299 435.074 107.138 440.484 100.355C441.19 99.4995 441.917 99.0501 442.665 99.1357C442.665 99.1357 471.938 162.965 489.087 177.665C488.274 176.317 461.674 132.987 462.615 128.108C462.615 128.108 517.676 209.142 534.632 211.238C534.632 211.238 504.333 173.685 504.718 163.757C504.718 163.757 550.84 219.241 550.455 220.974C550.07 222.643 515.644 209.377 514.297 208.863C515.73 210.169 561.81 251.316 580.37 253.371C580.37 253.371 560.548 239.077 560.163 230.304C560.163 230.304 609.429 249.455 616.571 254.034C616.678 254.12 616.785 254.184 616.87 254.248C622.75 258.442 626.599 261.117 626.599 261.117C616.314 267.065 606.82 272.586 604.04 274.34C604.746 274.169 616.336 271.195 626.856 267.878Z" fill="#1B3F77"/>
<path d="M547.098 318.57L546.735 318.848L544.853 320.217L539.956 323.791C539.956 323.791 521.118 310.588 515.773 310.588C510.427 310.588 481.475 335.987 479.657 337.571C480.855 335.944 498.731 312.257 506.621 311.53C506.621 311.53 489.664 302.949 486.051 303.142C482.437 303.334 446.428 343.177 446.428 343.177C446.428 343.177 448.695 327.236 457.227 321.48C455.944 321.993 415.958 337.913 403.834 347.82C410.912 341.658 446.364 310.888 454.426 306.951L484.148 253.371C484.148 253.371 492.722 281.594 500.912 288.848C509.101 296.081 547.184 314.761 547.098 318.57Z" fill="#25528B"/>
<path d="M539.935 323.791C535.83 326.786 531.083 330.231 525.865 334.019C524.454 335.046 522.979 336.116 521.503 337.186C516.756 340.631 511.667 344.29 506.364 348.12C504.803 349.254 503.2 350.409 501.596 351.565C491.632 358.733 480.983 366.372 470.313 373.947C465.545 377.349 460.755 380.751 456.029 384.068C453.335 385.972 450.662 387.855 448.011 389.717C448.011 389.717 364.918 431.143 358.054 431.143C358.054 431.143 417.498 381.586 421.817 374.974C421.817 374.974 308.253 425.301 302.159 431.143C302.159 431.143 337.954 371.122 354.312 365.623C349.351 367.292 251.675 400.33 230.591 406.536C228.774 407.071 227.534 407.392 226.956 407.499C226.956 407.499 228.175 406.236 230.356 404.011C245.88 388.155 309.964 323.298 329.337 313.948C329.337 313.948 282.615 322.336 258.239 338.598C258.432 338.17 261.703 331.13 268.332 326.936C267.284 327.407 246.008 336.672 224.903 346.75C211.817 352.999 198.774 359.546 190.648 364.532C191.055 363.719 202.216 342.235 222.252 318.869C226.272 314.204 230.634 309.454 235.338 304.789C235.338 304.789 229.779 306.523 221.354 309.347C211.625 312.578 198.068 317.307 184.854 322.528L193.941 252.707C202.452 246.502 209.743 241.324 214.576 237.921C218.531 235.097 220.862 233.492 220.862 233.492C225.438 235.782 243.357 254.59 243.357 254.59C241.796 255.767 239.957 257.971 238.054 260.646C237.797 260.967 237.562 261.309 237.327 261.673C235.146 264.797 232.965 268.392 231.062 271.666C230.848 272.029 230.634 272.393 230.442 272.757C229.415 274.533 228.496 276.181 227.747 277.571C227.491 278.042 227.256 278.47 227.042 278.877C226.635 279.626 226.315 280.225 226.08 280.696C225.844 281.166 225.673 281.487 225.609 281.594C225.63 281.573 225.673 281.551 225.695 281.53C225.737 281.487 225.802 281.423 225.866 281.359C226.058 281.145 226.357 280.867 226.742 280.46L227.149 280.054C227.576 279.604 228.111 279.069 228.71 278.47C228.923 278.256 229.116 278.042 229.351 277.828C229.907 277.25 230.527 276.63 231.211 275.945C231.981 275.175 232.815 274.34 233.692 273.442C233.841 273.271 233.991 273.121 234.141 272.971C234.611 272.522 235.06 272.051 235.531 271.58C240.021 267.022 245.709 261.288 251.953 254.997C276.03 230.796 308.382 198.507 311.931 196.431C314.305 195.04 317.255 195.682 319.586 197.159C319.586 197.159 319.608 197.159 319.65 197.159C322.943 199.256 324.996 202.936 322.494 204.862C318.453 207.965 293.414 240.553 290.292 244.619C293.499 240.939 318.025 212.779 330.363 206.146C334.853 203.728 338.339 200.668 341.439 197.137C347.448 190.269 351.938 181.645 359.315 172.573C370.498 158.857 381.168 166.988 407.597 134.442C426.692 110.926 436.486 102.945 440.463 100.334C435.053 107.117 431.482 139.278 431.482 139.278C431.482 139.278 426.008 146.895 424.49 150.469C424.49 150.469 430.199 144.478 432.102 144.478L433.128 176.146C433.128 176.146 422.009 191.424 419.187 195.918C420.128 195.083 435.181 181.859 439.864 181.859L442.024 208.928C442.024 208.928 384.718 255.211 377.619 270.96C377.619 270.96 425.88 229.534 435.031 227.244L430.969 241.73C430.969 241.73 447.027 229.598 455.281 225.96C456.671 225.361 457.825 224.997 458.659 224.954L462.466 244.769L484.126 253.349L454.404 306.929C446.343 310.866 410.89 341.636 403.813 347.799C415.937 337.892 455.922 321.972 457.205 321.458C448.674 327.214 446.407 343.156 446.407 343.156C446.407 343.156 482.416 303.313 486.029 303.12C489.643 302.928 506.599 311.508 506.599 311.508C498.709 312.236 480.833 335.923 479.636 337.549C481.453 335.966 510.598 310.567 515.751 310.567C520.904 310.567 539.935 323.769 539.935 323.769V323.791Z" fill="#D4EBF9"/>
<path d="M341.461 197.159C338.36 200.689 334.875 203.749 330.384 206.167C318.047 212.8 293.521 240.96 290.313 244.64C293.435 240.575 318.474 207.986 322.516 204.883C325.017 202.958 322.965 199.277 319.672 197.18C320.613 197.373 332.223 199.855 341.461 197.159Z" fill="#ABD5F3"/>
<path d="M243.378 254.59C243.378 254.59 225.459 235.782 220.884 233.492C220.884 233.492 234.739 235.076 251.974 254.997C237.22 269.847 225.588 281.658 225.588 281.658C225.588 281.658 237.006 259.426 243.378 254.59Z" fill="#ABD5F3"/>
<path d="M448.011 389.696C443.093 393.162 438.26 396.521 433.599 399.774C432.038 400.844 430.477 401.892 428.959 402.962C427.997 403.626 427.034 404.289 426.094 404.931C424.062 406.343 422.052 407.712 420.085 409.039C405.737 418.797 393.827 426.585 386.749 430.522C381.168 433.625 375.673 436.642 370.306 439.531C370.285 439.552 370.263 439.552 370.263 439.552C344.048 453.632 321.04 464.673 309.023 469.402C294.547 475.137 246.906 472.077 246.906 472.077C246.906 472.077 242.566 477.277 238.011 484.659C228.667 499.766 218.36 523.924 242.416 530.921C243.784 531.327 245.281 531.67 246.906 531.948C252.701 532.975 262.73 533.809 275.752 534.515L242.651 533.467L230.848 533.103L183.314 334.318L184.854 322.528C198.068 317.307 211.625 312.578 221.354 309.347C229.779 306.523 235.338 304.789 235.338 304.789C230.634 309.454 226.272 314.204 222.252 318.869C202.216 342.235 191.055 363.719 190.648 364.532C198.774 359.546 211.817 352.998 224.903 346.75C246.008 336.672 267.284 327.407 268.332 326.936C261.703 331.13 258.432 338.17 258.239 338.598C282.615 322.336 329.337 313.948 329.337 313.948C309.964 323.298 245.88 388.155 230.356 404.011C228.175 406.236 226.956 407.499 226.956 407.499C227.534 407.392 228.774 407.071 230.591 406.536C251.675 400.33 349.351 367.292 354.312 365.623C337.954 371.122 302.159 431.143 302.159 431.143C308.253 425.301 421.817 374.974 421.817 374.974C417.498 381.586 358.054 431.143 358.054 431.143C364.918 431.143 448.011 389.696 448.011 389.696Z" fill="#ABD5F3"/>
<path d="M312.081 371.015C312.081 371.015 334.939 358.819 344.861 358.433C344.861 358.433 377.64 326.016 393.25 314.953C393.25 314.953 326.557 345.466 312.081 371.015Z" fill="#ABD5F3"/>
<path d="M430.99 241.752L435.053 227.265C425.901 229.555 377.64 270.981 377.64 270.981C384.739 255.232 442.045 208.949 442.045 208.949L439.885 181.881C439.885 181.881 451.56 220.525 455.302 225.982C447.049 229.619 430.99 241.752 430.99 241.752Z" fill="#25528B"/>
<path d="M580.37 253.371C561.81 251.316 515.73 210.169 514.297 208.863C515.644 209.377 550.07 222.643 550.455 220.974C550.84 219.241 504.718 163.757 504.718 163.757C504.333 173.685 534.632 211.238 534.632 211.238C517.676 209.142 462.615 128.108 462.615 128.108C461.674 132.987 488.274 176.317 489.087 177.665C471.938 162.965 442.665 99.1357 442.665 99.1357C449.272 99.8846 492.465 146.168 501.361 147.43C510.256 148.693 547.847 191.403 557.512 205.654C564.654 216.203 599.208 241.602 616.571 254.034C609.429 249.455 560.163 230.304 560.163 230.304C560.548 239.077 580.37 253.371 580.37 253.371Z" fill="#5384B9"/>
<path d="M474.418 175.654C474.418 175.654 476.578 196.239 520.156 224.976L474.418 175.654Z" fill="#5384B9"/>
<path d="M266.108 527.326C266.108 527.326 270.94 494.266 273.72 494.266C276.5 494.266 279.301 521.976 279.301 521.976L282.851 507.49C282.851 507.49 285.652 520.971 285.908 525.55C285.908 525.55 289.715 499.359 292.516 499.359C292.516 499.359 298.61 521.227 298.61 524.266C298.61 524.266 304.704 484.488 306.992 485.172C309.28 485.857 313.856 515.108 313.856 515.108C313.856 515.108 318.945 494.459 319.8 494.545C320.655 494.63 324.761 517.226 324.761 517.226C324.761 517.226 332.01 483.289 333.143 483.289C334.276 483.289 341.054 520.372 341.054 520.372C341.054 520.372 344.967 497.005 346.871 497.305C348.774 497.604 353.82 528.289 353.82 528.289C353.82 528.289 358.289 504.259 360.021 504.067C361.753 503.874 367.077 536.377 367.077 536.377C367.077 536.377 375.374 490.8 378.218 490.907C381.062 491.014 384.034 523.603 384.034 523.603C384.034 523.603 389.914 484.145 392.694 484.231C395.473 484.316 398.403 515.685 398.403 515.685C398.403 515.685 399.258 494.716 401.739 494.523C404.219 494.331 407.555 513.203 407.555 513.203C407.555 513.203 409.372 489.088 411.553 489.088C413.734 489.088 420.128 528.567 420.128 528.567C420.128 528.567 427.654 485.664 428.317 485.664C428.98 485.664 434.219 530.086 434.219 530.086C434.219 530.086 441.083 503.767 443.841 503.96C446.6 504.152 450.897 529.123 450.897 529.123C450.897 529.123 454.511 497.283 456.714 497.176C458.916 497.069 464.24 527.197 464.24 527.197C464.24 527.197 467.298 489.816 469.586 489.816C471.874 489.816 475.872 515.365 475.872 515.365C475.872 515.365 479.486 499.915 481.111 499.915C482.736 499.915 489.301 531.862 489.301 531.862C489.301 531.862 500.056 490.779 502.152 490.672C504.247 490.565 509.957 516.327 509.957 516.327C509.957 516.327 513.378 496.042 516.243 496C519.108 495.957 522.252 515.771 522.252 515.771C522.252 515.771 525.908 493.175 527.127 493.175C528.346 493.175 538.353 526.256 538.353 526.256C538.353 526.256 540.919 500.6 544.917 500.514C548.916 500.429 551.674 520.543 551.674 520.543C551.674 520.543 553.192 498.995 555.951 498.995C558.709 498.995 561.467 525.4 561.467 525.4C561.467 525.4 567.562 490.03 570.234 489.837C572.907 489.644 578.339 528.546 578.339 528.546C578.339 528.546 584.732 497.369 586.998 497.476C589.265 497.583 591.66 519.965 591.66 519.965C591.66 519.965 594.803 504.815 596.706 504.708C598.609 504.601 602.8 528.246 602.8 528.246C602.8 528.246 608.809 503.746 611.76 503.746C614.711 503.746 618.709 524.715 618.709 524.715C618.709 524.715 622.323 491.634 623.862 491.634C625.402 491.634 631.303 522.148 631.303 522.148C631.303 522.148 637.312 493.453 639.493 493.346C641.674 493.239 647.982 528.332 647.982 528.332C647.982 528.332 648.174 501.071 649.693 500.878C651.211 500.686 659.229 526.042 659.229 526.042C659.229 526.042 657.519 499.166 659.892 498.974C662.266 498.781 673.043 530.236 673.043 530.236L674.86 541.234C674.86 541.234 273.955 551.783 261.767 539.565L266.087 527.24L266.108 527.326Z" fill="#113E61"/>
<path d="M568.93 547.055C568.93 547.055 572.544 527.411 575.217 527.411C577.889 527.411 582.465 542.283 582.465 542.283C582.465 542.283 583.791 509.288 586.271 509.288C588.752 509.288 592.002 533.36 592.002 533.36C592.002 533.36 594.846 495.7 597.519 495.165C600.192 494.63 606.286 524.544 606.286 524.544C606.286 524.544 606.478 484.894 611.054 484.894C615.63 484.894 618.303 511.406 618.303 511.406C618.303 511.406 617.341 474.602 620.398 474.709C623.456 474.816 629.358 509.502 629.358 509.502C629.358 509.502 630.127 464.502 634.511 464.502C638.894 464.502 640.605 502.825 640.605 502.825C640.605 502.825 646.699 470.023 648.046 469.83C649.393 469.638 653.948 503.382 653.948 503.382C653.948 503.382 656.621 453.418 658.909 453.418C661.197 453.418 665.58 491.549 665.58 491.549L684.824 504.323L666.157 545.707L570.705 555.421L568.994 547.033L568.93 547.055Z" fill="#0B2050"/>
<path d="M378.88 537.896C378.88 537.896 373.535 518.403 371.824 518.339C370.114 518.275 366.115 531.498 366.115 531.498C366.115 531.498 362.245 484.274 360.47 484.274C358.695 484.274 348.538 525.528 348.538 525.528L347.961 542.304L376.913 544.594L378.88 537.896Z" fill="#0B2050"/>
<path d="M226.229 539.501C226.229 539.501 208.995 549.494 201.639 539.501C194.262 529.508 188.617 521.634 188.617 521.634C188.617 521.634 163.535 532.312 151.326 501.049C151.326 501.049 128.211 499.017 129.216 446.143C130.221 393.269 135.053 382.335 151.582 381.821C151.582 381.821 137.555 338.576 167.598 314.953C167.598 314.953 154.661 298.691 155.923 277.828C157.184 256.965 170.335 253.178 170.335 253.178C170.335 253.178 167.063 213.592 192.765 206.916C192.765 206.916 179.294 141.589 191.739 115.398C204.184 89.2072 225.181 104.977 226.251 117.688C227.32 130.398 227.32 165.982 227.32 165.982C227.32 165.982 237.476 178.693 236.472 188.6C236.472 188.6 247.655 183.528 248.66 210.468C249.686 237.408 248.66 250.375 248.66 250.375C248.66 250.375 260.099 246.309 264.162 260.539C264.162 260.539 270.513 209.184 286.764 210.447C303.015 211.709 294.889 283.927 315.481 297.386C336.072 310.845 307.868 351.8 327.177 367.035C346.486 382.292 352.067 400.33 352.323 417.876C352.58 435.423 342.615 456.264 347.747 467.969C352.9 479.673 359.935 511.449 326.407 520.842C292.879 530.257 287.02 518.81 287.02 518.81C287.02 518.81 252.231 545.086 230.891 533.082C230.891 533.082 230.72 537.361 226.251 539.48L226.229 539.501Z" fill="#071642"/>
<path d="M231.34 575H240.235L208.738 377.97L204.419 388.39L231.34 575Z" fill="#680B47"/>
<path d="M250.392 331.965C250.392 331.965 248.104 374.418 250.392 389.417C252.68 404.417 254.968 415.095 254.968 415.095C254.968 415.095 260.057 401.357 260.057 394.51C260.057 387.663 250.413 331.965 250.413 331.965H250.392Z" fill="#680B47"/>
<path d="M215.602 182.223C215.602 182.223 213.314 225.703 218.66 227.479C224.005 229.255 215.602 182.223 215.602 182.223Z" fill="#680B47"/>
<path d="M254.711 456.157V575H271.112L265.766 512.283L292.451 485.129V476.485L263.478 502.183L260.057 449.673L254.711 456.157Z" fill="#680B47"/>
<path d="M205.937 456.157L206.899 447.576C206.899 447.576 173.927 427.548 173.371 423.547C172.794 419.545 170.313 428.704 170.313 428.704L205.937 456.157Z" fill="#680B47"/>
<path d="M211.839 289.704L222.316 373.54C222.316 373.54 227.833 367.891 229.565 364.639C231.297 361.386 222.316 324.026 222.316 324.026L229.779 320.602L230.698 313.348L220.413 318.505C220.413 318.505 216.03 293.149 211.839 289.704Z" fill="#680B47"/>
<path d="M810.149 149.164C810.149 149.164 817.761 87.9661 806.92 86.2329C796.079 84.4997 786.35 105.876 784.446 137.138C782.543 168.4 792.059 190.333 782.736 204.07C773.392 217.808 778.545 244.683 778.545 244.683C778.545 244.683 757.59 241.452 753.784 255.361C753.784 255.361 747.882 244.876 743.499 244.105C743.499 244.105 751.496 234.755 753.976 212.458C756.457 190.14 753.014 172.316 744.439 170.754C735.865 169.192 728.253 197.416 728.424 210.661C728.424 210.661 710.698 211.324 701.931 238.392C693.164 265.46 700.028 302.65 700.028 302.65C700.028 302.65 690.876 312.386 694.682 327.257C694.682 327.257 668.766 331.451 664.19 360.06C659.614 388.669 672.957 405.059 672.957 405.059C672.957 405.059 662.544 408.868 659.229 413.704C655.936 418.54 658.588 426.543 658.588 426.543C658.588 426.543 653.777 423.44 647.02 433.54C640.263 443.639 641.76 459.195 645.63 460.244C645.63 460.244 639.386 469.894 641.311 480.957C643.235 492.02 660.491 499.017 660.491 499.017C660.491 499.017 639.579 514.701 646.827 532.44C654.076 550.179 670.648 550.928 683.991 544.251C683.991 544.251 688.759 562.932 713.712 560.642C738.666 558.353 739.051 526.898 739.051 526.898C739.051 526.898 744.204 528.032 744.397 517.547C744.397 517.547 772.6 536.227 810.127 516.777C810.127 516.777 822.508 533.745 847.846 532.419C873.185 531.092 884.047 512.39 883.662 500.001C883.662 500.001 896.62 487.997 893.007 464.16C889.393 440.323 876.627 435.744 876.627 435.744C876.627 435.744 893.007 418.39 891.681 393.804C890.355 369.197 880.818 363.291 880.818 363.291C880.818 363.291 897.583 336.779 890.355 307.421C883.106 278.064 864.439 278.62 864.439 278.62C864.439 278.62 866.15 261.652 859.863 253.071C853.577 244.491 841.004 242.779 841.004 242.779C841.004 242.779 844.425 219.519 835.851 218.556C835.851 218.556 835.466 162.687 826.891 154.877C818.317 147.067 810.127 149.164 810.127 149.164H810.149Z" fill="#071642"/>
<path d="M803.306 176.874C803.306 176.874 805.851 239.804 805.081 243.228L799.115 242.715L801.018 176.874H803.306Z" fill="#680B47"/>
<path d="M820.819 261.545H824.368C824.368 261.545 808.609 353.833 808.866 359.675H805.188C805.188 359.675 816.991 267.643 820.797 261.545H820.819Z" fill="#680B47"/>
<path d="M754.318 352.613L753.356 361.964C753.356 361.964 732.593 337.549 731.631 332.029C730.669 326.508 725.152 283.969 725.152 283.969H730.669C730.669 283.969 734.475 328.776 736.015 329.932C737.554 331.087 754.297 352.613 754.297 352.613H754.318Z" fill="#680B47"/>
<path d="M720.897 456.029H725.174L730.626 564.836L716.364 562.803C716.364 562.803 717.861 527.711 716.364 524.929C714.867 522.148 704.454 472.12 704.454 472.12L707.255 474.088L720.726 524.18L720.897 456.05V456.029Z" fill="#680B47"/>
<path d="M769.757 317.221H774.332L782.458 534.58L805.209 442.869L814.81 445.865L790.84 562.29H771.531L769.757 477.127L749.186 433.647L755.537 430.608L770.526 466.706L769.757 317.221Z" fill="#680B47"/>
<path d="M527.383 156.546L842.158 59.6783C842.158 59.6783 794.903 34.5146 759.835 48.2305C724.767 61.9679 704.197 96.2898 704.197 96.2898C704.197 96.2898 660.747 87.9019 602.822 113.836C544.896 139.77 527.362 156.546 527.362 156.546H527.383Z" fill="#FDDDD8"/>
</g>
<defs>
<clipPath id="clip0_623_328">
<rect width="986" height="575" fill="white"/>
</clipPath>
</defs>
</svg>
