<svg width="267" height="267" viewBox="0 0 267 267" fill="none" xmlns="http://www.w3.org/2000/svg">
<path d="M257.855 95.8753C257.855 95.8753 255.919 90.8579 255.497 85.5624C254.996 79.3769 249.211 69.3644 240.912 67.106C232.29 64.7586 222.211 63.3346 211.597 76.2508L210.541 77.5301C200.717 89.5229 188.491 104.464 160 108.291C135.124 111.628 121.841 119.594 101.727 131.653C96.9544 134.512 92.026 137.472 86.3633 140.72C60.7981 155.405 23.14 159.633 12.2041 160.578C11.0471 160.678 10.0236 161.346 9.45624 162.358C8.88886 163.371 8.86661 164.583 9.38949 165.618C11.4365 169.679 16.2314 176.687 25.6765 179.257C25.9101 180.614 26.5554 182.661 28.3576 184.441C30.6605 186.722 34.087 187.868 38.5592 187.868C38.7706 187.868 39.0042 187.868 39.2267 187.857C39.516 189.437 40.2947 191.717 42.3084 193.564C44.4889 195.555 47.526 196.557 51.3864 196.557C52.4432 196.557 53.5669 196.479 54.7572 196.334C55.2134 196.278 55.7029 196.178 56.2257 196.056C56.6374 197.346 57.4829 198.948 59.1739 200.083C60.5422 201.007 62.211 201.463 64.169 201.463C66.2827 201.463 68.7414 200.929 71.5115 199.861C84.4499 194.888 120.517 157.652 124.122 153.914C131.397 150.755 136.815 147.006 141.321 143.88C148.63 138.807 153.458 135.447 160.923 137.438C166.185 138.84 169.434 141.699 170.557 145.927C171.225 148.419 170.969 150.733 170.802 151.701C151.066 169.289 148.986 169.345 133.578 169.768L132.821 169.79C115.9 170.257 108.391 180.281 105.565 184.063L105.432 184.241C103.818 186.388 103.318 190.36 105.543 193.508C107.679 196.534 111.261 197.502 114.977 197.502C118.693 197.502 122.264 196.601 124.945 195.767C127.125 195.077 129.306 194.576 131.486 194.198C131.764 194.276 132.065 194.287 132.376 194.209C132.577 194.154 132.766 194.065 132.921 193.953C137.349 193.286 141.799 193.074 146.416 192.852C157.83 192.307 170.769 191.684 185.954 183.44C205.835 172.649 211.063 158.097 217.115 141.232C219.251 135.269 221.465 129.117 224.48 122.731C235.349 99.7023 255.474 98.3339 256.32 98.2783C256.887 98.2449 257.399 97.9445 257.711 97.4773C258.022 96.9989 258.078 96.4093 257.877 95.8753H257.855ZM39.7051 184.308C35.6334 184.497 32.6741 183.707 30.883 181.972C30.1821 181.282 29.7482 180.537 29.4924 179.869C29.8706 179.891 30.26 179.891 30.6605 179.891C40.9734 179.891 61.3989 174.518 81.8132 168.21C73.0579 173.595 50.8635 183.774 39.7051 184.297V184.308ZM54.3011 192.819C49.9179 193.386 46.7027 192.763 44.7225 190.983C43.5321 189.904 42.9981 188.558 42.7645 187.545C56.5817 185.509 79.9442 174.195 86.1854 169.545C91.3585 165.696 92.8604 164.795 93.1607 164.628C97.633 163.182 102.016 161.724 106.188 160.311C101.649 163.782 95.6639 168.277 89.3226 172.782C67.3062 188.446 58.117 192.329 54.29 192.819H54.3011ZM100.67 172.148C82.0246 189.815 73.8255 195.166 70.2321 196.545C66.1047 198.136 62.9675 198.348 61.1541 197.157C60.253 196.557 59.7969 195.667 59.5632 194.943C76.1951 188.413 110.126 161.802 115.911 157.219C112.006 161.157 106.533 166.586 100.659 172.148H100.67ZM221.265 121.218C218.183 127.748 215.936 133.99 213.778 140.03C207.971 156.206 202.953 170.179 184.263 180.325C169.79 188.179 157.819 188.758 146.238 189.314C141.788 189.526 137.483 189.737 133.166 190.338C132.832 189.259 132.443 188.224 131.987 187.156C131.23 185.521 130.441 183.919 128.994 182.706C127.148 181.282 124.266 181.682 121.785 182.439C121.785 182.439 121.785 182.439 121.763 182.439C121.652 182.483 121.24 182.661 121.24 182.817C121.24 182.962 121.685 182.951 121.841 182.94C121.863 182.94 121.874 182.94 121.885 182.94C123.298 182.784 124.722 182.784 126.091 183.084C127.57 183.296 128.305 184.475 128.816 185.821C129.417 187.401 129.773 189.136 129.996 190.838C127.971 191.228 125.946 191.717 123.888 192.351C116.178 194.765 110.549 194.432 108.424 191.428C107.156 189.637 107.512 187.301 108.257 186.31L108.391 186.132C111.172 182.417 117.702 173.695 132.91 173.272L133.667 173.25C149.086 172.827 152.279 172.738 171.603 155.65L174.963 154.259C175.608 153.992 175.853 153.191 175.463 152.613L174.418 151.033C174.785 146.85 174.195 137.271 161.824 133.978C160.011 133.5 158.32 133.278 156.718 133.278C150.332 133.278 145.326 136.76 139.296 140.932C133.711 144.803 127.392 149.197 117.969 152.49C108.713 155.728 100.025 158.665 91.9704 161.279C91.9704 161.279 91.8702 161.301 91.8035 161.335C57.7499 172.371 34.8991 177.677 27.7012 176.087C18.8902 174.151 14.4514 167.743 12.5824 164.06C23.7741 163.093 61.9885 158.776 88.1322 143.746C93.8171 140.475 98.9902 137.383 103.551 134.646C123.988 122.397 136.326 114.999 160.478 111.751C190.349 107.735 203.065 92.2151 213.277 79.7329L214.323 78.4535C223.601 67.1505 231.756 68.2296 239.977 70.4769C246.597 72.2791 251.581 80.901 251.97 85.8071C252.259 89.4561 253.172 92.8826 253.828 94.9964C247.72 95.9976 230.999 100.581 221.265 121.185V121.218Z" fill="white"/>
<path d="M64.169 202.008C62.0997 202.008 60.3197 201.507 58.8624 200.539C57.5162 199.627 56.4816 198.314 55.8698 196.701C55.5026 196.779 55.1577 196.835 54.8351 196.879C49.2059 197.602 44.8449 196.623 41.9524 193.975C40.0166 192.207 39.1711 190.059 38.7929 188.424C38.715 188.424 38.6482 188.435 38.5704 188.424C33.9424 188.424 30.3824 187.223 27.9794 184.842C26.2439 183.117 25.5096 181.159 25.2092 179.713C15.7307 176.999 10.9359 169.901 8.9 165.885C8.29925 164.683 8.3215 163.282 8.97787 162.102C9.63425 160.923 10.8246 160.155 12.1596 160.044C23.0621 159.099 60.6201 154.893 86.0852 140.253C91.8035 136.971 96.6985 134.034 101.438 131.186C121.607 119.093 134.935 111.105 159.922 107.746C188.19 103.952 200.339 89.1112 210.107 77.1852L211.164 75.9059C221.988 62.7339 232.268 64.1801 241.056 66.5831C249.589 68.9082 255.541 79.1877 256.053 85.529C256.453 90.5018 258.178 95.1632 258.378 95.675L257.866 95.8752L258.389 95.675C258.656 96.3647 258.578 97.1546 258.178 97.7776C257.777 98.4006 257.088 98.8011 256.353 98.8345C255.519 98.879 235.716 100.247 224.981 122.965C221.977 129.328 219.774 135.469 217.638 141.41C211.553 158.375 206.291 173.027 186.221 183.918C170.924 192.218 157.919 192.841 146.449 193.397C141.844 193.619 137.483 193.831 133.122 194.476C132.921 194.598 132.721 194.687 132.51 194.732C132.176 194.821 131.831 194.821 131.475 194.743C129.217 195.144 127.136 195.644 125.123 196.278C122.553 197.079 118.715 198.036 114.999 198.036C110.416 198.036 107.089 196.612 105.109 193.809C102.728 190.438 103.284 186.177 105.009 183.885L105.142 183.707C108.013 179.869 115.633 169.69 132.821 169.211L133.578 169.189C148.852 168.777 150.844 168.722 170.29 151.4C170.435 150.432 170.635 148.318 170.034 146.06C168.955 142.033 165.851 139.307 160.79 137.961C153.581 136.048 148.83 139.341 141.655 144.325C137.238 147.384 131.753 151.2 124.466 154.37C120.072 158.921 84.6501 195.399 71.734 200.372C68.9083 201.463 66.3717 202.008 64.1912 202.008H64.169ZM56.604 195.377L56.7597 195.867C57.2826 197.48 58.1949 198.737 59.4854 199.605C62.1554 201.396 66.1715 201.296 71.3112 199.327C84.0827 194.409 119.705 157.686 123.721 153.514L123.899 153.391C131.141 150.243 136.604 146.449 140.998 143.401C148.441 138.239 153.347 134.824 161.057 136.871C166.53 138.317 169.901 141.31 171.091 145.76C171.792 148.396 171.503 150.833 171.347 151.767L171.314 151.956L171.169 152.09C151.278 169.812 148.919 169.879 133.6 170.301L132.844 170.324C116.189 170.78 108.802 180.659 106.021 184.363L105.888 184.541C104.397 186.533 103.93 190.226 106.01 193.163C107.768 195.655 110.794 196.924 114.988 196.924C118.57 196.924 122.286 195.989 124.789 195.21C126.881 194.554 129.039 194.031 131.397 193.619L131.52 193.597L131.642 193.631C131.853 193.686 132.054 193.697 132.243 193.642C132.376 193.608 132.499 193.553 132.621 193.464L132.844 193.375C137.294 192.696 141.71 192.485 146.394 192.262C157.752 191.717 170.624 191.094 185.687 182.917C205.379 172.226 210.574 157.764 216.581 141.009C218.717 135.046 220.931 128.883 223.968 122.464C234.971 99.1571 255.419 97.7442 256.287 97.6997C256.676 97.6775 257.032 97.4772 257.243 97.1435C257.455 96.8208 257.499 96.4092 257.355 96.0532L257.877 95.853L257.355 96.0421C257.154 95.5081 255.374 90.7132 254.963 85.5846C254.484 79.566 248.855 69.8205 240.778 67.6177C232.334 65.3148 222.444 63.9131 212.042 76.5733L210.986 77.8527C201.095 89.9233 188.791 104.953 160.089 108.802C135.324 112.129 122.086 120.072 102.027 132.087C97.277 134.935 92.3709 137.872 86.6526 141.165C60.9872 155.917 23.229 160.155 12.2709 161.101C11.2919 161.19 10.4352 161.746 9.95687 162.592C9.48962 163.437 9.46737 164.461 9.90125 165.329C11.8704 169.233 16.5651 176.153 25.8434 178.679L26.1882 178.768L26.2439 179.112C26.4775 180.425 27.0894 182.339 28.7692 183.996C30.9609 186.166 34.2539 187.267 38.5815 187.267C38.7261 187.267 38.8819 187.267 39.0265 187.267L39.7051 187.245L39.7941 187.712C40.0722 189.214 40.8065 191.372 42.7089 193.108C45.3455 195.522 49.4061 196.412 54.7016 195.733C55.1244 195.678 55.6027 195.589 56.1145 195.466L56.6151 195.344L56.604 195.377ZM64.1801 198.47C62.834 198.47 61.7215 198.192 60.8649 197.624C60.0305 197.068 59.3964 196.2 59.0515 195.11L58.8957 194.61L59.3853 194.42C75.8391 187.957 109.092 161.935 115.589 156.785L116.334 157.608C112.707 161.268 107.111 166.83 101.071 172.549L100.692 172.148L101.071 172.549C82.3584 190.282 74.0925 195.666 70.4546 197.068C68.0294 198.003 65.9267 198.47 64.1912 198.47H64.1801ZM60.2864 195.255C60.5645 195.878 60.965 196.356 61.4656 196.69C63.0899 197.769 66.1381 197.524 70.0319 196.022C73.5807 194.665 81.702 189.336 100.281 171.737C103.396 168.788 106.388 165.885 109.058 163.259C96.6874 172.749 73.5029 189.848 60.2752 195.255H60.2864ZM115.044 194.521C111.717 194.521 109.27 193.597 107.979 191.773C106.488 189.67 107 187.089 107.812 185.999L107.946 185.821C110.783 182.038 117.424 173.172 132.899 172.749L133.656 172.727C148.886 172.315 152.056 172.226 171.236 155.272L171.392 155.171L174.751 153.781C174.907 153.714 175.03 153.592 175.074 153.425C175.107 153.336 175.13 153.147 175.007 152.958L173.85 151.211L173.873 151.022C174.217 147.139 173.717 137.75 161.691 134.557C159.966 134.101 158.342 133.878 156.729 133.878C150.521 133.878 145.715 137.216 139.63 141.432C134.012 145.326 127.659 149.742 118.17 153.058C109.014 156.262 100.258 159.221 92.1595 161.846L91.6144 162.024C57.494 173.072 34.7656 178.256 27.59 176.676C18.5342 174.685 13.9952 168.099 12.0929 164.35L11.7146 163.615L12.5379 163.549C23.6184 162.592 61.7882 158.286 87.8541 143.312C93.5946 140.008 98.9569 136.793 103.262 134.212C123.754 121.919 136.137 114.51 160.4 111.239C190.048 107.256 202.686 91.8257 212.843 79.4213L213.889 78.142C223.379 66.5831 231.711 67.6845 240.122 69.9762C246.964 71.8452 252.126 80.7341 252.526 85.8071C252.816 89.356 253.683 92.6935 254.362 94.874L254.551 95.4858L253.917 95.586C247.42 96.654 231.289 101.315 221.766 121.463C218.695 127.971 216.459 134.201 214.29 140.219C208.449 156.506 203.398 170.568 184.508 180.815C169.923 188.724 157.886 189.303 146.249 189.87C141.977 190.071 137.561 190.282 133.222 190.894L132.755 190.961L132.61 190.516C132.265 189.414 131.887 188.391 131.453 187.389C130.73 185.799 129.951 184.274 128.616 183.14C127.737 182.461 126.48 182.205 124.856 182.361C125.312 182.405 125.757 182.472 126.191 182.561C128.049 182.828 128.861 184.452 129.317 185.643C129.873 187.089 130.274 188.825 130.53 190.794L130.596 191.317L130.085 191.417C127.949 191.828 125.968 192.318 124.044 192.919C120.606 193.998 117.558 194.532 115.032 194.532L115.044 194.521ZM171.903 156.162C152.49 173.316 149.231 173.405 133.689 173.839L132.933 173.861C117.992 174.273 111.573 182.839 108.836 186.488L108.702 186.677C108.079 187.512 107.779 189.581 108.88 191.139C110.849 193.931 116.267 194.198 123.721 191.851C125.534 191.283 127.392 190.816 129.373 190.415C129.128 188.747 128.772 187.278 128.293 186.032C127.715 184.508 127.036 183.796 126.013 183.651C124.778 183.384 123.454 183.34 121.941 183.507C121.24 183.551 120.995 183.418 120.873 183.295L120.695 183.129L120.673 182.839C120.673 182.472 120.973 182.161 121.552 181.938C125.067 180.87 127.659 180.981 129.328 182.272C130.863 183.562 131.698 185.209 132.488 186.933C132.888 187.846 133.233 188.758 133.544 189.726C137.783 189.158 142.066 188.958 146.205 188.758C157.719 188.202 169.623 187.634 183.985 179.836C202.497 169.79 207.481 155.906 213.244 139.841C215.413 133.789 217.661 127.537 220.753 120.984C230.21 100.97 246.074 95.8752 253.105 94.5847C252.437 92.3597 251.67 89.2225 251.403 85.885C251.024 81.1346 246.207 72.7797 239.81 71.0442C231.778 68.8526 223.802 67.7957 214.735 78.8428L213.689 80.1222C203.409 92.6712 190.616 108.302 160.534 112.34C136.493 115.566 124.188 122.942 103.818 135.158C99.502 137.739 94.1397 140.965 88.3881 144.269C62.745 158.998 25.5541 163.471 13.4501 164.583C15.4637 168.221 19.7691 173.817 27.8125 175.586C34.8435 177.143 57.5051 171.903 91.6255 160.845C91.6589 160.834 91.7256 160.801 91.7924 160.778L92.3375 160.6C100.281 158.031 108.847 155.138 117.791 152.001C127.136 148.73 133.422 144.369 138.973 140.52C144.981 136.348 150.154 132.755 156.718 132.755C158.431 132.755 160.144 132.988 161.958 133.478C174.607 136.837 175.308 146.639 174.974 150.922L175.92 152.335C176.198 152.757 176.276 153.269 176.131 153.747C175.986 154.226 175.63 154.615 175.174 154.804L171.903 156.162ZM51.3752 193.575C48.3159 193.575 45.9685 192.841 44.3554 191.394C43.0315 190.204 42.4641 188.713 42.2305 187.668L42.097 187.078L42.6977 186.989C56.2369 184.998 79.4214 173.895 85.8739 169.089C90.9914 165.284 92.5489 164.338 92.9049 164.138C97.1769 162.748 101.56 161.29 106.032 159.777L109.225 158.698L106.544 160.745C100.67 165.24 94.9964 169.434 89.6675 173.227C67.551 188.958 58.2839 192.863 54.3901 193.364C53.3221 193.497 52.3209 193.564 51.3975 193.564L51.3752 193.575ZM43.4654 187.99C43.7324 188.802 44.2107 189.77 45.0896 190.571C46.9364 192.24 50.018 192.818 54.2233 192.273C57.9835 191.795 67.0726 187.935 89 172.337C93.5056 169.133 98.256 165.64 103.162 161.924C99.8024 163.048 96.5094 164.138 93.3276 165.162C93.183 165.251 91.7034 166.13 86.5191 169.99C80.1 174.774 57.2381 185.743 43.4654 188.001V187.99ZM38.5704 184.886C34.9325 184.886 32.218 184.041 30.4936 182.372C29.8261 181.727 29.3144 180.948 28.9695 180.08L28.658 179.279L29.5146 179.313C37.9585 179.691 55.4692 175.764 81.6464 167.687L85.8405 166.397L82.1025 168.699C73.3916 174.062 51.1639 184.33 39.7385 184.864C39.3491 184.886 38.9597 184.886 38.5815 184.886H38.5704ZM30.3824 180.447C30.6271 180.859 30.9164 181.226 31.2612 181.56C32.93 183.184 35.7669 183.907 39.6717 183.74C49.1725 183.295 66.9836 175.63 77.1519 170.212C54.6126 177.01 38.982 180.447 30.6494 180.447C30.5604 180.447 30.4714 180.447 30.3824 180.447Z" fill="white"/>
<path d="M241.613 80.7341C240.011 80.7341 238.72 82.0246 238.72 83.6266C238.72 85.2286 240.011 86.5191 241.613 86.5191C243.215 86.5191 244.505 85.2286 244.505 83.6266C244.505 82.0246 243.215 80.7341 241.613 80.7341Z" fill="white"/>
<path d="M241.613 87.0865C239.71 87.0865 238.164 85.5401 238.164 83.6377C238.164 81.7353 239.71 80.189 241.613 80.189C243.515 80.189 245.061 81.7353 245.061 83.6377C245.061 85.5401 243.515 87.0865 241.613 87.0865ZM241.613 81.3015C240.322 81.3015 239.277 82.3472 239.277 83.6377C239.277 84.9282 240.322 85.974 241.613 85.974C242.903 85.974 243.949 84.9282 243.949 83.6377C243.949 82.3472 242.903 81.3015 241.613 81.3015Z" fill="white"/>
</svg>
